<svg version="1.2" baseProfile="tiny-ps" xmlns="http://www.w3.org/2000/svg" viewBox="0 0 143 140" width="143" height="140">
	<title>Layer 1</title>
	<style>
		tspan { white-space:pre }
		.s0 { fill: #b0d243 } 
		.s1 { fill: #2fc2b9 } 
		.s2 { fill: #0090d3 } 
		.s3 { fill: #ffffff } 
	</style>
	<g id="Layer 1">
		<g id="&lt;Group&gt;">
			<g id="&lt;Group&gt;">
				<path id="&lt;Path&gt;" class="s0" d="m26.69 99.66c-1.82-2.14-3.52-4.44-5.07-6.88c-17.74-28.08-9.39-65.22 18.7-82.97c28.06-17.76 65.22-9.38 82.96 18.69c1.55 2.45 2.89 4.97 4.04 7.53c-19.09-22.44-52.27-28.01-77.9-11.81c-25.63 16.21-34.82 48.56-22.73 75.44z" />
				<path id="&lt;Path&gt;" class="s1" d="m71.47 20.32c2.77-0.51 5.6-0.83 8.49-0.94c33.19-1.29 61.14 24.55 62.44 57.75c1.3 33.19-24.57 61.14-57.75 62.43c-2.9 0.12-5.75 0.02-8.55-0.26c28.99-5.28 50.45-31.21 49.26-61.5c-1.18-30.3-24.57-54.47-53.9-57.48z" />
				<g id="&lt;Group&gt;">
				</g>
				<path id="&lt;Path&gt;" class="s2" d="m117.7 98.99c-0.95 2.64-2.09 5.26-3.44 7.81c-15.52 29.37-51.89 40.61-81.27 25.1c-29.37-15.49-40.6-51.89-25.09-81.25c1.35-2.57 2.87-4.98 4.52-7.25c-9.96 27.72 1.72 59.28 28.53 73.43c26.81 14.17 59.46 6.03 76.75-17.83z" />
			</g>
			<path id="&lt;Compound Path&gt;" fill-rule="evenodd" class="s3" d="m100.54 84.48v4.71c0 2.93-0.44 5.38-1.3 7.36c-0.88 1.98-1.99 3.71-3.35 5.17c-0.38 0.44-0.91 0.93-1.59 1.51c-0.68 0.57-1.62 1.12-2.82 1.66c-1.14 0.5-2.57 0.91-4.28 1.27c-1.71 0.35-3.74 0.52-6.08 0.52h-32.06v-66.35h29.94c2.34 0 4.36 0.18 6.04 0.56c1.68 0.38 3.12 0.82 4.32 1.3c1.15 0.54 2.08 1.11 2.82 1.67c0.73 0.57 1.29 1.07 1.67 1.5c1.24 1.41 2.32 3.17 3.21 5.28c0.9 2.12 1.36 4.62 1.36 7.48v3.09c0 2.22-0.33 4.21-0.98 5.97c-0.65 1.77-1.41 3.29-2.28 4.6c1.36 1.35 2.59 3.07 3.71 5.16c1.11 2.08 1.67 4.6 1.67 7.52zm-11.92 2.36c0-1.58-0.26-2.89-0.78-3.95c-0.51-1.05-1.23-1.91-2.16-2.56c-0.87-0.64-1.89-1.09-3.05-1.34c-1.17-0.24-2.38-0.37-3.64-0.37h-4.2v-11.63h5.1c1.74 0 3.26-0.56 4.57-1.7c1.3-1.14 1.95-3.01 1.95-5.61c0-2.55-0.75-4.47-2.25-5.78c-1.49-1.3-3.27-1.95-5.33-1.95h-18.12v43.09h20.24c2.55 0 4.44-0.63 5.67-1.87c1.22-1.24 1.89-3.35 1.99-6.34z" />
		</g>
	</g>
</svg>