<svg version="1.2" baseProfile="tiny-ps" xmlns="http://www.w3.org/2000/svg" viewBox="0 0 201 198" width="201" height="198">
	<title>Layer 1</title>
	<style>
		tspan { white-space:pre }
		.s0 { fill: #b0d243 } 
		.s1 { fill: #2fc2b9 } 
		.s2 { fill: #0090d3 } 
	</style>
	<g id="Layer 1">
		<g id="&lt;Group&gt;">
			<path id="&lt;Path&gt;" class="s0" d="m36.86 140.95c-2.58-3.04-4.98-6.27-7.17-9.73c-25.12-39.75-13.28-92.33 26.46-117.46c39.72-25.13 92.32-13.27 117.44 26.46c2.19 3.47 4.09 7.03 5.72 10.65c-27.03-31.76-73.99-39.66-110.27-16.72c-36.28 22.94-49.3 68.75-32.18 106.79z" />
			<path id="&lt;Path&gt;" class="s1" d="m100.26 28.65c3.91-0.71 7.93-1.18 12.02-1.33c46.98-1.83 86.55 34.76 88.38 81.75c1.84 46.97-34.78 86.55-81.74 88.37c-4.1 0.17-8.14 0.02-12.1-0.38c41.04-7.47 71.41-44.17 69.73-87.05c-1.67-42.89-34.79-77.11-76.29-81.36z" />
			<path id="&lt;Path&gt;" class="s2" d="m165.7 140.01c-1.35 3.74-2.96 7.45-4.87 11.06c-21.96 41.57-73.45 57.49-115.04 35.52c-41.57-21.94-57.48-73.46-35.52-115.02c1.91-3.64 4.06-7.05 6.39-10.27c-14.1 39.25 2.44 83.92 40.39 103.95c37.95 20.05 84.16 8.53 108.63-25.25z" />
		</g>
	</g>
</svg>