<svg version="1.2" baseProfile="tiny-ps" xmlns="http://www.w3.org/2000/svg" viewBox="0 0 201 198" width="201" height="198">
	<title>Layer 1</title>
	<defs>
		<linearGradient id="grd1" gradientUnits="userSpaceOnUse"  x1="147" y1="53.7" x2="147" y2="152.7">
			<stop offset="0" stop-color="#007dc7"  />
			<stop offset="1" stop-color="#003a6e"  />
		</linearGradient>
	</defs>
	<style>
		tspan { white-space:pre }
		.s0 { fill: #b0d243 } 
		.s1 { fill: #2fc2b9 } 
		.s2 { fill: #0090d3 } 
		.s3 { fill: url(#grd1) } 
	</style>
	<g id="Layer 1">
		<g id="&lt;Group&gt;">
			<g id="&lt;Group&gt;">
				<path id="&lt;Path&gt;" class="s0" d="m36.56 140.95c-2.58-3.04-4.98-6.27-7.17-9.73c-25.12-39.75-13.28-92.33 26.47-117.46c39.72-25.13 92.32-13.27 117.44 26.46c2.19 3.47 4.09 7.03 5.72 10.65c-27.03-31.76-73.99-39.66-110.27-16.72c-36.28 22.94-49.3 68.75-32.18 106.79z" />
				<path id="&lt;Path&gt;" class="s1" d="m99.96 28.65c3.91-0.71 7.93-1.18 12.02-1.33c46.98-1.83 86.55 34.76 88.38 81.75c1.84 46.97-34.78 86.55-81.74 88.37c-4.1 0.17-8.14 0.02-12.1-0.38c41.04-7.47 71.41-44.17 69.73-87.05c-1.67-42.89-34.79-77.11-76.29-81.36z" />
				<path id="&lt;Path&gt;" class="s2" d="m165.4 140.01c-1.35 3.74-2.96 7.45-4.87 11.06c-21.96 41.57-73.45 57.49-115.04 35.52c-41.57-21.94-57.48-73.45-35.52-115.02c1.91-3.64 4.06-7.05 6.39-10.27c-14.1 39.25 2.44 83.92 40.39 103.95c37.96 20.05 84.16 8.53 108.63-25.25z" />
			</g>
			<path id="&lt;Compound Path&gt;" fill-rule="evenodd" class="s3" d="m143.05 120.3v7.03c0 4.37-0.65 8.02-1.95 10.97c-1.3 2.95-2.96 5.53-5 7.7c-0.57 0.66-1.36 1.4-2.36 2.26c-1.02 0.85-2.42 1.67-4.2 2.48c-1.7 0.73-3.83 1.36-6.39 1.88c-2.55 0.53-5.58 0.78-9.06 0.78h-47.81v-98.96h44.65c3.49 0 6.5 0.28 9.02 0.85c2.5 0.57 4.66 1.22 6.44 1.94c1.71 0.81 3.1 1.64 4.21 2.48c1.08 0.85 1.91 1.61 2.49 2.25c1.86 2.11 3.47 4.73 4.8 7.88c1.34 3.15 2.01 6.88 2.01 11.16v4.62c0 3.31-0.49 6.28-1.46 8.9c-0.97 2.63-2.11 4.91-3.41 6.85c2.03 2.02 3.87 4.59 5.54 7.7c1.66 3.11 2.5 6.86 2.5 11.22zm-17.77 3.52c0-2.35-0.38-4.32-1.16-5.89c-0.77-1.57-1.84-2.85-3.22-3.82c-1.29-0.96-2.82-1.64-4.56-2c-1.74-0.37-3.55-0.55-5.42-0.55h-6.27v-17.34h7.61c2.59 0 4.87-0.84 6.81-2.54c1.95-1.7 2.92-4.49 2.92-8.37c0-3.8-1.12-6.66-3.35-8.61c-2.23-1.93-4.88-2.91-7.96-2.91h-27.02v64.27h30.18c3.81 0 6.62-0.93 8.45-2.78c1.82-1.87 2.82-5.01 2.98-9.46z" />
		</g>
	</g>
</svg>