<?xml version="1.0" encoding="UTF-8" standalone="no"?>
<svg
   xmlns:dc="http://purl.org/dc/elements/1.1/"
   xmlns:cc="http://creativecommons.org/ns#"
   xmlns:rdf="http://www.w3.org/1999/02/22-rdf-syntax-ns#"
   xmlns:svg="http://www.w3.org/2000/svg"
   xmlns="http://www.w3.org/2000/svg"
   xmlns:sodipodi="http://sodipodi.sourceforge.net/DTD/sodipodi-0.dtd"
   xmlns:inkscape="http://www.inkscape.org/namespaces/inkscape"
   version="1.1"
   id="svg2"
   xml:space="preserve"
   width="793.70667"
   height="1122.52"
   viewBox="0 0 793.70667 1122.52"
   sodipodi:docname="temp_1637242416753.ai"><metadata
     id="metadata8"><rdf:RDF><cc:Work
         rdf:about=""><dc:format>image/svg+xml</dc:format><dc:type
           rdf:resource="http://purl.org/dc/dcmitype/StillImage" /></cc:Work></rdf:RDF></metadata><defs
     id="defs6"><clipPath
       clipPathUnits="userSpaceOnUse"
       id="clipPath20"><path
         d="M 0,841.89 H 595.28 V 0 H 0 Z"
         id="path18" /></clipPath><linearGradient
       x1="0"
       y1="0"
       x2="1"
       y2="0"
       gradientUnits="userSpaceOnUse"
       gradientTransform="matrix(0,-38.102509,-38.102509,0,205.00146,598.36572)"
       spreadMethod="pad"
       id="linearGradient262"><stop
         style="stop-opacity:1;stop-color:#007ac2"
         offset="0"
         id="stop258" /><stop
         style="stop-opacity:1;stop-color:#003a72"
         offset="1"
         id="stop260" /></linearGradient><linearGradient
       x1="0"
       y1="0"
       x2="1"
       y2="0"
       gradientUnits="userSpaceOnUse"
       gradientTransform="matrix(0,-38.102493,-38.102493,0,238.10742,598.41406)"
       spreadMethod="pad"
       id="linearGradient282"><stop
         style="stop-opacity:1;stop-color:#007ac2"
         offset="0"
         id="stop278" /><stop
         style="stop-opacity:1;stop-color:#003a72"
         offset="1"
         id="stop280" /></linearGradient><linearGradient
       x1="0"
       y1="0"
       x2="1"
       y2="0"
       gradientUnits="userSpaceOnUse"
       gradientTransform="matrix(0,-38.102509,-38.102509,0,276.15088,598.4585)"
       spreadMethod="pad"
       id="linearGradient302"><stop
         style="stop-opacity:1;stop-color:#007ac2"
         offset="0"
         id="stop298" /><stop
         style="stop-opacity:1;stop-color:#003a72"
         offset="1"
         id="stop300" /></linearGradient><clipPath
       clipPathUnits="userSpaceOnUse"
       id="clipPath312"><path
         d="M 0,841.89 H 595.28 V 0 H 0 Z"
         id="path310" /></clipPath><linearGradient
       x1="0"
       y1="0"
       x2="1"
       y2="0"
       gradientUnits="userSpaceOnUse"
       gradientTransform="matrix(0,-38.102585,-38.102585,0,171.57764,597.92334)"
       spreadMethod="pad"
       id="linearGradient338"><stop
         style="stop-opacity:1;stop-color:#007ac2"
         offset="0"
         id="stop334" /><stop
         style="stop-opacity:1;stop-color:#003a72"
         offset="1"
         id="stop336" /></linearGradient><clipPath
       clipPathUnits="userSpaceOnUse"
       id="clipPath348"><path
         d="M 0,841.89 H 595.28 V 0 H 0 Z"
         id="path346" /></clipPath><linearGradient
       x1="0"
       y1="0"
       x2="1"
       y2="0"
       gradientUnits="userSpaceOnUse"
       gradientTransform="matrix(0,-38.102509,-38.102509,0,205.00146,692.64893)"
       spreadMethod="pad"
       id="linearGradient404"><stop
         style="stop-opacity:1;stop-color:#007ac2"
         offset="0"
         id="stop400" /><stop
         style="stop-opacity:1;stop-color:#003a72"
         offset="1"
         id="stop402" /></linearGradient><linearGradient
       x1="0"
       y1="0"
       x2="1"
       y2="0"
       gradientUnits="userSpaceOnUse"
       gradientTransform="matrix(0,-38.102493,-38.102493,0,238.10742,692.69727)"
       spreadMethod="pad"
       id="linearGradient424"><stop
         style="stop-opacity:1;stop-color:#007ac2"
         offset="0"
         id="stop420" /><stop
         style="stop-opacity:1;stop-color:#003a72"
         offset="1"
         id="stop422" /></linearGradient><linearGradient
       x1="0"
       y1="0"
       x2="1"
       y2="0"
       gradientUnits="userSpaceOnUse"
       gradientTransform="matrix(0,-38.102509,-38.102509,0,276.15088,692.7417)"
       spreadMethod="pad"
       id="linearGradient444"><stop
         style="stop-opacity:1;stop-color:#007ac2"
         offset="0"
         id="stop440" /><stop
         style="stop-opacity:1;stop-color:#003a72"
         offset="1"
         id="stop442" /></linearGradient><clipPath
       clipPathUnits="userSpaceOnUse"
       id="clipPath454"><path
         d="M 0,841.89 H 595.28 V 0 H 0 Z"
         id="path452" /></clipPath><linearGradient
       x1="0"
       y1="0"
       x2="1"
       y2="0"
       gradientUnits="userSpaceOnUse"
       gradientTransform="matrix(0,-38.102585,-38.102585,0,171.57764,692.20654)"
       spreadMethod="pad"
       id="linearGradient480"><stop
         style="stop-opacity:1;stop-color:#007ac2"
         offset="0"
         id="stop476" /><stop
         style="stop-opacity:1;stop-color:#003a72"
         offset="1"
         id="stop478" /></linearGradient><clipPath
       clipPathUnits="userSpaceOnUse"
       id="clipPath490"><path
         d="M 0,841.89 H 595.28 V 0 H 0 Z"
         id="path488" /></clipPath><linearGradient
       x1="0"
       y1="0"
       x2="1"
       y2="0"
       gradientUnits="userSpaceOnUse"
       gradientTransform="matrix(0,-49.479492,-49.479492,0,362.33008,408.15234)"
       spreadMethod="pad"
       id="linearGradient580"><stop
         style="stop-opacity:1;stop-color:#007ac2"
         offset="0"
         id="stop576" /><stop
         style="stop-opacity:1;stop-color:#003a72"
         offset="1"
         id="stop578" /></linearGradient><clipPath
       clipPathUnits="userSpaceOnUse"
       id="clipPath590"><path
         d="M 0,841.89 H 595.28 V 0 H 0 Z"
         id="path588" /></clipPath></defs><sodipodi:namedview
     pagecolor="#ffffff"
     bordercolor="#666666"
     borderopacity="1"
     objecttolerance="10"
     gridtolerance="10"
     guidetolerance="10"
     inkscape:pageopacity="0"
     inkscape:pageshadow="2"
     inkscape:window-width="640"
     inkscape:window-height="480"
     id="namedview4" /><g
     id="g10"
     inkscape:groupmode="layer"
     inkscape:label="temp_1637242416753"
     transform="matrix(1.3333333,0,0,-1.3333333,0,1122.52)"><path
       d="M 595.28,765.89 H 464 v 76 h 131.28 z"
       style="fill:#c6c8ca;fill-opacity:1;fill-rule:nonzero;stroke:none"
       id="path12" /><g
       id="g14"><g
         id="g16"
         clip-path="url(#clipPath20)"><g
           id="g22"
           transform="translate(470.9121,23.79)"><path
             d="m 0,0 c 0.184,-0.033 0.449,-0.041 0.73,-0.041 1.545,0 2.383,0.863 2.383,2.373 C 3.121,3.652 2.375,4.49 0.848,4.49 0.475,4.49 0.191,4.457 0,4.416 Z M -0.721,4.947 C -0.281,5.014 0.242,5.064 0.814,5.064 1.852,5.064 2.59,4.822 3.08,4.367 3.578,3.91 3.869,3.262 3.869,2.357 3.869,1.445 3.586,0.697 3.064,0.184 2.541,-0.34 1.678,-0.623 0.59,-0.623 c -0.514,0 -0.945,0.025 -1.311,0.066 z"
             style="fill:#abadb0;fill-opacity:1;fill-rule:nonzero;stroke:none"
             id="path24" /></g><g
           id="g26"
           transform="translate(478.2715,25.6162)"><path
             d="M 0,0 C 0.008,0.465 -0.191,1.188 -1.012,1.188 -1.752,1.188 -2.074,0.506 -2.133,0 Z m -2.141,-0.523 c 0.016,-0.987 0.647,-1.395 1.377,-1.395 0.524,0 0.838,0.092 1.114,0.209 l 0.123,-0.523 c -0.256,-0.118 -0.698,-0.25 -1.336,-0.25 -1.237,0 -1.975,0.814 -1.975,2.025 0,1.213 0.713,2.168 1.883,2.168 1.312,0 1.66,-1.154 1.66,-1.893 0,-0.15 -0.016,-0.265 -0.023,-0.341 z"
             style="fill:#abadb0;fill-opacity:1;fill-rule:nonzero;stroke:none"
             id="path28" /></g><g
           id="g30"
           transform="translate(479.7793,23.9639)"><path
             d="m 0,0 c 0.217,-0.141 0.598,-0.289 0.963,-0.289 0.531,0 0.781,0.266 0.781,0.598 0,0.347 -0.207,0.539 -0.748,0.738 -0.721,0.258 -1.062,0.656 -1.062,1.137 0,0.648 0.523,1.179 1.386,1.179 0.407,0 0.764,-0.117 0.989,-0.25 L 2.125,2.582 C 1.969,2.682 1.678,2.814 1.305,2.814 0.873,2.814 0.631,2.566 0.631,2.268 0.631,1.936 0.873,1.785 1.395,1.586 2.092,1.32 2.449,0.973 2.449,0.375 c 0,-0.707 -0.547,-1.205 -1.502,-1.205 -0.439,0 -0.847,0.109 -1.129,0.275 z"
             style="fill:#abadb0;fill-opacity:1;fill-rule:nonzero;stroke:none"
             id="path32" /></g><path
           d="m 483.164,27.235 h 0.73 v -4.018 h -0.73 z m 0.815,1.129 c 0.007,-0.25 -0.174,-0.449 -0.465,-0.449 -0.258,0 -0.44,0.199 -0.44,0.449 0,0.258 0.19,0.457 0.455,0.457 0.276,0 0.45,-0.199 0.45,-0.457"
           style="fill:#abadb0;fill-opacity:1;fill-rule:nonzero;stroke:none"
           id="path34" /><g
           id="g36"
           transform="translate(487.8125,25.6494)"><path
             d="m 0,0 c 0,0.125 -0.008,0.232 -0.041,0.332 -0.133,0.424 -0.49,0.772 -1.022,0.772 -0.697,0 -1.195,-0.588 -1.195,-1.518 0,-0.789 0.399,-1.445 1.188,-1.445 0.447,0 0.853,0.283 1.011,0.748 C -0.018,-0.988 0,-0.846 0,-0.723 Z M 0.756,1.586 C 0.738,1.295 0.723,0.971 0.723,0.482 v -2.334 c 0,-0.919 -0.184,-1.484 -0.575,-1.834 -0.388,-0.365 -0.953,-0.48 -1.461,-0.48 -0.48,0 -1.011,0.115 -1.335,0.332 l 0.183,0.555 c 0.266,-0.166 0.68,-0.315 1.178,-0.315 0.748,0 1.295,0.391 1.295,1.403 v 0.449 h -0.016 c -0.224,-0.375 -0.656,-0.674 -1.279,-0.674 -0.996,0 -1.709,0.848 -1.709,1.959 0,1.361 0.887,2.135 1.808,2.135 0.698,0 1.081,-0.365 1.254,-0.698 h 0.016 l 0.033,0.606 z"
             style="fill:#abadb0;fill-opacity:1;fill-rule:nonzero;stroke:none"
             id="path38" /></g><g
           id="g40"
           transform="translate(489.6934,26.1475)"><path
             d="M 0,0 C 0,0.416 -0.008,0.756 -0.033,1.088 H 0.615 L 0.656,0.424 H 0.674 C 0.873,0.805 1.338,1.18 2.002,1.18 2.557,1.18 3.42,0.848 3.42,-0.531 V -2.93 H 2.689 v 2.317 c 0,0.646 -0.24,1.185 -0.929,1.185 -0.481,0 -0.854,-0.34 -0.979,-0.746 C 0.748,-0.266 0.73,-0.391 0.73,-0.514 V -2.93 H 0 Z"
             style="fill:#abadb0;fill-opacity:1;fill-rule:nonzero;stroke:none"
             id="path42" /></g><g
           id="g44"
           transform="translate(496.8477,25.6162)"><path
             d="M 0,0 C 0.008,0.465 -0.191,1.188 -1.014,1.188 -1.752,1.188 -2.076,0.506 -2.135,0 Z m -2.143,-0.523 c 0.018,-0.987 0.649,-1.395 1.379,-1.395 0.522,0 0.838,0.092 1.112,0.209 l 0.125,-0.523 c -0.258,-0.118 -0.698,-0.25 -1.336,-0.25 -1.239,0 -1.977,0.814 -1.977,2.025 0,1.213 0.715,2.168 1.885,2.168 1.31,0 1.66,-1.154 1.66,-1.893 0,-0.15 -0.017,-0.265 -0.025,-0.341 z"
             style="fill:#abadb0;fill-opacity:1;fill-rule:nonzero;stroke:none"
             id="path46" /></g><g
           id="g48"
           transform="translate(498.4551,25.9814)"><path
             d="M 0,0 C 0,0.473 -0.008,0.881 -0.033,1.254 H 0.605 L 0.631,0.465 h 0.033 c 0.182,0.539 0.623,0.881 1.111,0.881 0.084,0 0.143,-0.01 0.209,-0.026 V 0.631 C 1.908,0.648 1.834,0.656 1.734,0.656 1.221,0.656 0.855,0.266 0.756,-0.281 0.738,-0.381 0.723,-0.498 0.723,-0.623 v -2.141 l -0.723,0 z"
             style="fill:#abadb0;fill-opacity:1;fill-rule:nonzero;stroke:none"
             id="path50" /></g><g
           id="g52"
           transform="translate(503.3906,25.9814)"><path
             d="m 0,0 c 0,-1.195 0.648,-2.266 1.785,-2.266 1.147,0 1.793,1.055 1.793,2.325 0,1.111 -0.58,2.273 -1.785,2.273 C 0.598,2.332 0,1.229 0,0 m 4.342,0.092 c 0,-1.926 -1.17,-2.947 -2.598,-2.947 -1.478,0 -2.515,1.146 -2.515,2.839 0,1.776 1.103,2.938 2.597,2.938 1.528,0 2.516,-1.17 2.516,-2.83"
             style="fill:#abadb0;fill-opacity:1;fill-rule:nonzero;stroke:none"
             id="path54" /></g><g
           id="g56"
           transform="translate(508.6426,29.1104)"><path
             d="m 0,0 h 0.73 v -2.506 h 0.016 c 0.117,0.207 0.299,0.391 0.524,0.514 0.216,0.125 0.472,0.209 0.748,0.209 0.539,0 1.402,-0.332 1.402,-1.719 V -5.893 H 2.689 v 2.307 c 0,0.648 -0.24,1.195 -0.929,1.195 -0.473,0 -0.848,-0.332 -0.981,-0.73 C 0.738,-3.221 0.73,-3.328 0.73,-3.469 V -5.893 H 0 Z"
             style="fill:#abadb0;fill-opacity:1;fill-rule:nonzero;stroke:none"
             id="path58" /></g><g
           id="g60"
           transform="translate(515.4297,25.8896)"><path
             d="m 0,0 c 0,-1.402 0.432,-2.199 1.096,-2.199 0.746,0 1.103,0.871 1.103,2.25 0,1.328 -0.34,2.199 -1.095,2.199 C 0.465,2.25 0,1.471 0,0 m 2.93,0.084 c 0,-1.834 -0.682,-2.848 -1.877,-2.848 -1.053,0 -1.768,0.989 -1.783,2.774 0,1.808 0.779,2.804 1.875,2.804 1.136,0 1.785,-1.011 1.785,-2.73"
             style="fill:#abadb0;fill-opacity:1;fill-rule:nonzero;stroke:none"
             id="path62" /></g><g
           id="g64"
           transform="translate(520.6152,27.9326)"><path
             d="M 0,0 H -0.018 L -0.955,-0.506 -1.096,0.049 0.082,0.68 H 0.705 V -4.715 H 0 Z"
             style="fill:#abadb0;fill-opacity:1;fill-rule:nonzero;stroke:none"
             id="path66" /></g><g
           id="g68"
           transform="translate(523.9414,25.8896)"><path
             d="m 0,0 c 0,-1.402 0.432,-2.199 1.096,-2.199 0.746,0 1.103,0.871 1.103,2.25 0,1.328 -0.34,2.199 -1.095,2.199 C 0.465,2.25 0,1.471 0,0 m 2.93,0.084 c 0,-1.834 -0.682,-2.848 -1.877,-2.848 -1.053,0 -1.768,0.989 -1.783,2.774 0,1.808 0.779,2.804 1.875,2.804 1.136,0 1.785,-1.011 1.785,-2.73"
             style="fill:#abadb0;fill-opacity:1;fill-rule:nonzero;stroke:none"
             id="path70" /></g><path
           d="m 529.467,25.192 h -2.051 v 0.541 h 2.051 z"
           style="fill:#abadb0;fill-opacity:1;fill-rule:nonzero;stroke:none"
           id="path72" /><g
           id="g74"
           transform="translate(530.7773,26.8369)"><path
             d="m 0,0 c 0,-0.672 0.406,-1.146 1.037,-1.146 0.49,0 0.871,0.242 1.063,0.564 0.041,0.066 0.066,0.15 0.066,0.266 0,0.921 -0.34,1.627 -1.103,1.627 C 0.439,1.311 0,0.764 0,0 m -0.266,-3.105 c 0.157,-0.016 0.34,0 0.588,0.025 0.424,0.059 0.823,0.232 1.129,0.523 0.358,0.325 0.615,0.797 0.715,1.436 H 2.141 c -0.299,-0.365 -0.731,-0.58 -1.27,-0.58 -0.971,0 -1.594,0.73 -1.594,1.65 0,1.022 0.739,1.918 1.842,1.918 1.106,0 1.785,-0.896 1.785,-2.273 0,-1.188 -0.398,-2.018 -0.929,-2.533 C 1.561,-3.346 0.986,-3.594 0.406,-3.66 0.141,-3.703 -0.092,-3.711 -0.266,-3.703 Z"
             style="fill:#abadb0;fill-opacity:1;fill-rule:nonzero;stroke:none"
             id="path76" /></g><g
           id="g78"
           transform="translate(535,25.8896)"><path
             d="m 0,0 c 0,-1.402 0.432,-2.199 1.096,-2.199 0.746,0 1.103,0.871 1.103,2.25 0,1.328 -0.34,2.199 -1.095,2.199 C 0.465,2.25 0,1.471 0,0 m 2.93,0.084 c 0,-1.834 -0.682,-2.848 -1.877,-2.848 -1.053,0 -1.768,0.989 -1.783,2.774 0,1.808 0.779,2.804 1.875,2.804 1.136,0 1.785,-1.011 1.785,-2.73"
             style="fill:#abadb0;fill-opacity:1;fill-rule:nonzero;stroke:none"
             id="path80" /></g><g
           id="g82"
           transform="translate(539.2891,26.8369)"><path
             d="m 0,0 c 0,-0.672 0.406,-1.146 1.037,-1.146 0.49,0 0.871,0.242 1.063,0.564 0.041,0.066 0.066,0.15 0.066,0.266 0,0.921 -0.34,1.627 -1.103,1.627 C 0.439,1.311 0,0.764 0,0 m -0.266,-3.105 c 0.157,-0.016 0.34,0 0.588,0.025 0.424,0.059 0.823,0.232 1.129,0.523 0.358,0.325 0.615,0.797 0.715,1.436 H 2.141 c -0.299,-0.365 -0.731,-0.58 -1.27,-0.58 -0.971,0 -1.594,0.73 -1.594,1.65 0,1.022 0.739,1.918 1.842,1.918 1.106,0 1.785,-0.896 1.785,-2.273 0,-1.188 -0.398,-2.018 -0.929,-2.533 C 1.561,-3.346 0.986,-3.594 0.406,-3.66 0.141,-3.703 -0.092,-3.711 -0.266,-3.703 Z"
             style="fill:#abadb0;fill-opacity:1;fill-rule:nonzero;stroke:none"
             id="path84" /></g><g
           id="g86"
           transform="translate(543.6855,27.3174)"><path
             d="m 0,0 c 0,-0.539 0.406,-0.83 1.029,-0.996 0.465,0.158 0.823,0.49 0.823,0.98 0,0.432 -0.258,0.879 -0.914,0.879 C 0.332,0.863 0,0.465 0,0 m 2.008,-2.697 c 0,0.656 -0.455,0.97 -1.186,1.179 C 0.191,-1.701 -0.15,-2.115 -0.15,-2.631 -0.174,-3.178 0.24,-3.66 0.93,-3.66 c 0.656,0 1.078,0.406 1.078,0.963 M -0.896,-2.73 c 0,0.681 0.406,1.162 1.07,1.445 l -0.008,0.023 c -0.598,0.283 -0.855,0.748 -0.855,1.213 0,0.856 0.722,1.436 1.668,1.436 1.046,0 1.57,-0.657 1.57,-1.328 0,-0.457 -0.225,-0.946 -0.889,-1.262 v -0.026 c 0.672,-0.265 1.088,-0.738 1.088,-1.394 0,-0.938 -0.807,-1.568 -1.836,-1.568 -1.129,0 -1.808,0.671 -1.808,1.461"
             style="fill:#abadb0;fill-opacity:1;fill-rule:nonzero;stroke:none"
             id="path88" /></g><path
           d="m 549.037,25.192 h -2.051 v 0.541 h 2.051 z"
           style="fill:#abadb0;fill-opacity:1;fill-rule:nonzero;stroke:none"
           id="path90" /><g
           id="g92"
           transform="translate(550.3477,26.8369)"><path
             d="m 0,0 c 0,-0.672 0.406,-1.146 1.037,-1.146 0.49,0 0.871,0.242 1.063,0.564 0.041,0.066 0.066,0.15 0.066,0.266 0,0.921 -0.34,1.627 -1.103,1.627 C 0.439,1.311 0,0.764 0,0 m -0.266,-3.105 c 0.157,-0.016 0.34,0 0.588,0.025 0.424,0.059 0.823,0.232 1.129,0.523 0.358,0.325 0.615,0.797 0.715,1.436 H 2.141 c -0.299,-0.365 -0.731,-0.58 -1.27,-0.58 -0.971,0 -1.594,0.73 -1.594,1.65 0,1.022 0.739,1.918 1.842,1.918 1.106,0 1.785,-0.896 1.785,-2.273 0,-1.188 -0.398,-2.018 -0.929,-2.533 C 1.561,-3.346 0.986,-3.594 0.406,-3.66 0.141,-3.703 -0.092,-3.711 -0.266,-3.703 Z"
             style="fill:#abadb0;fill-opacity:1;fill-rule:nonzero;stroke:none"
             id="path94" /></g><g
           id="g96"
           transform="translate(554.0879,24.0557)"><path
             d="m 0,0 c 0.207,-0.133 0.689,-0.34 1.195,-0.34 0.938,0 1.229,0.598 1.221,1.045 -0.008,0.756 -0.689,1.08 -1.395,1.08 H 0.615 v 0.547 h 0.406 c 0.532,0 1.204,0.275 1.204,0.914 0,0.432 -0.274,0.813 -0.946,0.813 -0.431,0 -0.847,-0.19 -1.08,-0.356 L 0.008,4.234 c 0.283,0.207 0.83,0.414 1.412,0.414 1.062,0 1.543,-0.63 1.543,-1.287 0,-0.554 -0.332,-1.029 -0.996,-1.269 V 2.076 C 2.631,1.943 3.172,1.445 3.172,0.689 c 0,-0.863 -0.674,-1.619 -1.969,-1.619 -0.605,0 -1.137,0.192 -1.402,0.366 z"
             style="fill:#abadb0;fill-opacity:1;fill-rule:nonzero;stroke:none"
             id="path98" /></g><g
           id="g100"
           transform="translate(560.4277,25.2588)"><path
             d="M 0,0 V 1.803 C 0,2.084 0.008,2.367 0.025,2.648 H 0 C -0.166,2.334 -0.299,2.102 -0.449,1.852 L -1.768,0.018 V 0 Z m 0,-2.041 v 1.469 H -2.508 V -0.09 L -0.1,3.354 H 0.689 V 0 H 1.443 V -0.572 H 0.689 v -1.469 z"
             style="fill:#abadb0;fill-opacity:1;fill-rule:nonzero;stroke:none"
             id="path102" /></g><g
           id="g104"
           transform="translate(565.9277,28.6123)"><path
             d="m 0,0 v -0.48 l -2.348,-4.915 h -0.756 l 2.34,4.774 v 0.016 H -3.402 V 0 Z"
             style="fill:#abadb0;fill-opacity:1;fill-rule:nonzero;stroke:none"
             id="path106" /></g><g
           id="g108"
           transform="translate(46.7676,461.8721)"><path
             d="m 0,0 c 0.468,-0.288 1.151,-0.528 1.871,-0.528 1.067,0 1.691,0.564 1.691,1.38 0,0.755 -0.432,1.187 -1.523,1.606 -1.319,0.468 -2.135,1.152 -2.135,2.291 0,1.259 1.043,2.195 2.615,2.195 0.827,0 1.427,-0.192 1.787,-0.396 L 4.018,5.697 C 3.754,5.841 3.214,6.081 2.482,6.081 1.379,6.081 0.959,5.421 0.959,4.869 0.959,4.114 1.451,3.742 2.566,3.31 3.934,2.782 4.629,2.123 4.629,0.936 c 0,-1.248 -0.923,-2.328 -2.83,-2.328 -0.779,0 -1.631,0.228 -2.063,0.517 z"
             style="fill:#c6c8ca;fill-opacity:1;fill-rule:nonzero;stroke:none"
             id="path110" /></g><path
           d="m 53.871,460.601 h -1.043 v 8.083 h 1.043 z"
           style="fill:#c6c8ca;fill-opacity:1;fill-rule:nonzero;stroke:none"
           id="path112" /><g
           id="g114"
           transform="translate(62.5078,464.1504)"><path
             d="M 0,0 C -0.06,1.127 -0.132,2.483 -0.12,3.49 H -0.156 C -0.432,2.543 -0.768,1.535 -1.175,0.42 l -1.428,-3.922 h -0.791 l -1.307,3.85 C -5.085,1.487 -5.409,2.531 -5.637,3.49 H -5.661 C -5.685,2.483 -5.745,1.127 -5.817,-0.083 L -6.033,-3.55 h -0.995 l 0.564,8.084 h 1.331 l 1.379,-3.91 c 0.336,-0.996 0.612,-1.883 0.816,-2.723 h 0.036 c 0.204,0.816 0.491,1.703 0.851,2.723 l 1.44,3.91 H 0.72 L 1.224,-3.55 h -1.02 z"
             style="fill:#c6c8ca;fill-opacity:1;fill-rule:nonzero;stroke:none"
             id="path116" /></g><g
           id="g118"
           transform="translate(66.3867,461.3921)"><path
             d="m 0,0 c 0.204,-0.036 0.503,-0.048 0.875,-0.048 1.08,0 2.075,0.396 2.075,1.571 0,1.103 -0.947,1.56 -2.087,1.56 H 0 Z m 0,3.874 h 0.947 c 1.104,0 1.751,0.576 1.751,1.355 0,0.948 -0.719,1.319 -1.775,1.319 C 0.443,6.548 0.168,6.513 0,6.477 Z m -1.043,3.31 c 0.455,0.096 1.175,0.168 1.906,0.168 1.044,0 1.716,-0.18 2.219,-0.588 C 3.502,6.453 3.754,5.973 3.754,5.337 3.754,4.558 3.238,3.874 2.387,3.562 V 3.538 C 3.154,3.346 4.054,2.71 4.054,1.511 4.054,0.815 3.778,0.288 3.37,-0.108 2.806,-0.624 1.895,-0.863 0.576,-0.863 c -0.72,0 -1.272,0.048 -1.619,0.095 z"
             style="fill:#c6c8ca;fill-opacity:1;fill-rule:nonzero;stroke:none"
             id="path120" /></g><g
           id="g122"
           transform="translate(72.4829,464.5942)"><path
             d="m 0,0 c 0,-1.727 0.935,-3.274 2.579,-3.274 1.654,0 2.59,1.523 2.59,3.358 C 5.169,1.691 4.33,3.37 2.59,3.37 0.863,3.37 0,1.775 0,0 m 6.272,0.132 c 0,-2.782 -1.691,-4.257 -3.753,-4.257 -2.135,0 -3.635,1.654 -3.635,4.101 0,2.567 1.595,4.246 3.754,4.246 2.207,0 3.634,-1.691 3.634,-4.09"
             style="fill:#c6c8ca;fill-opacity:1;fill-rule:nonzero;stroke:none"
             id="path124" /></g><g
           id="g126"
           transform="translate(80.1152,468.6841)"><path
             d="M 0,0 H 1.043 V -7.208 H 4.498 V -8.083 H 0 Z"
             style="fill:#c6c8ca;fill-opacity:1;fill-rule:nonzero;stroke:none"
             id="path128" /></g><path
           d="M 565.928,465.158 H 101 v 1 h 464.928 z"
           style="fill:#c6c8ca;fill-opacity:1;fill-rule:nonzero;stroke:none"
           id="path130" /><g
           id="g132"
           transform="translate(47.9551,297.0166)"><path
             d="m 0,0 c 0.204,-0.037 0.503,-0.049 0.875,-0.049 1.08,0 2.075,0.397 2.075,1.572 0,1.103 -0.947,1.559 -2.087,1.559 H 0 Z m 0,3.873 h 0.947 c 1.104,0 1.751,0.576 1.751,1.356 0,0.947 -0.719,1.319 -1.775,1.319 C 0.443,6.548 0.168,6.512 0,6.477 Z m -1.043,3.311 c 0.455,0.095 1.175,0.168 1.906,0.168 1.044,0 1.716,-0.18 2.219,-0.588 C 3.502,6.452 3.754,5.973 3.754,5.336 3.754,4.557 3.238,3.873 2.387,3.562 V 3.537 C 3.154,3.346 4.054,2.71 4.054,1.511 4.054,0.814 3.778,0.287 3.37,-0.108 2.806,-0.624 1.895,-0.863 0.576,-0.863 c -0.72,0 -1.272,0.047 -1.619,0.095 z"
             style="fill:#c6c8ca;fill-opacity:1;fill-rule:nonzero;stroke:none"
             id="path134" /></g><g
           id="g136"
           transform="translate(57.373,299.583)"><path
             d="M 0,0 -0.792,2.326 C -0.971,2.854 -1.091,3.334 -1.211,3.802 H -1.235 C -1.355,3.322 -1.487,2.83 -1.643,2.338 L -2.435,0 Z m -2.65,-0.816 -0.84,-2.542 h -1.079 l 2.746,8.083 h 1.26 L 2.195,-3.358 H 1.08 l -0.864,2.542 z"
             style="fill:#c6c8ca;fill-opacity:1;fill-rule:nonzero;stroke:none"
             id="path138" /></g><g
           id="g140"
           transform="translate(66.2285,296.4883)"><path
             d="m 0,0 c -0.384,-0.192 -1.151,-0.384 -2.135,-0.384 -2.279,0 -3.994,1.44 -3.994,4.09 0,2.531 1.715,4.246 4.222,4.246 1.008,0 1.643,-0.217 1.919,-0.36 L -0.24,6.74 c -0.396,0.193 -0.96,0.336 -1.631,0.336 -1.895,0 -3.154,-1.212 -3.154,-3.334 0,-1.979 1.139,-3.251 3.106,-3.251 0.636,0 1.283,0.133 1.703,0.336 z"
             style="fill:#c6c8ca;fill-opacity:1;fill-rule:nonzero;stroke:none"
             id="path142" /></g><g
           id="g144"
           transform="translate(67.5396,304.3076)"><path
             d="m 0,0 h 1.043 v -3.897 h 0.036 c 0.216,0.311 0.432,0.599 0.636,0.864 L 4.186,0 H 5.481 L 2.555,-3.43 5.708,-8.083 H 4.474 L 1.811,-4.113 1.043,-5 V -8.083 H 0 Z"
             style="fill:#c6c8ca;fill-opacity:1;fill-rule:nonzero;stroke:none"
             id="path146" /></g><g
           id="g148"
           transform="translate(79.9917,296.585)"><path
             d="m 0,0 c -0.468,-0.168 -1.391,-0.444 -2.482,-0.444 -1.224,0 -2.231,0.311 -3.023,1.067 -0.696,0.672 -1.127,1.751 -1.127,3.01 0.012,2.411 1.667,4.174 4.378,4.174 0.935,0 1.667,-0.203 2.014,-0.371 L -0.492,6.584 c -0.431,0.191 -0.971,0.348 -1.787,0.348 -1.967,0 -3.25,-1.223 -3.25,-3.25 0,-2.051 1.236,-3.262 3.118,-3.262 0.684,0 1.152,0.096 1.392,0.215 v 2.411 h -1.644 v 0.839 l 2.663,0 z"
             style="fill:#c6c8ca;fill-opacity:1;fill-rule:nonzero;stroke:none"
             id="path150" /></g><g
           id="g152"
           transform="translate(82.6348,300.5186)"><path
             d="M 0,0 H 1.067 C 2.183,0 2.89,0.611 2.89,1.535 2.89,2.578 2.135,3.034 1.031,3.046 0.527,3.046 0.168,2.998 0,2.95 Z M -1.043,3.682 C -0.516,3.789 0.24,3.85 0.959,3.85 2.075,3.85 2.794,3.646 3.298,3.189 3.706,2.83 3.934,2.278 3.934,1.654 3.934,0.588 3.262,-0.12 2.411,-0.408 V -0.443 C 3.034,-0.66 3.406,-1.236 3.598,-2.075 3.862,-3.203 4.054,-3.982 4.222,-4.294 H 3.142 C 3.01,-4.066 2.83,-3.371 2.603,-2.363 2.362,-1.248 1.931,-0.828 0.983,-0.792 H 0 v -3.502 h -1.043 z"
             style="fill:#c6c8ca;fill-opacity:1;fill-rule:nonzero;stroke:none"
             id="path154" /></g><g
           id="g156"
           transform="translate(88.7188,300.2178)"><path
             d="m 0,0 c 0,-1.727 0.935,-3.273 2.578,-3.273 1.655,0 2.591,1.523 2.591,3.357 C 5.169,1.691 4.33,3.371 2.59,3.371 0.863,3.371 0,1.775 0,0 m 6.272,0.133 c 0,-2.783 -1.691,-4.258 -3.753,-4.258 -2.135,0 -3.635,1.654 -3.635,4.102 0,2.566 1.595,4.246 3.754,4.246 2.207,0 3.634,-1.692 3.634,-4.09"
             style="fill:#c6c8ca;fill-opacity:1;fill-rule:nonzero;stroke:none"
             id="path158" /></g><g
           id="g160"
           transform="translate(97.3945,304.3076)"><path
             d="m 0,0 v -4.785 c 0,-1.811 0.803,-2.578 1.883,-2.578 1.199,0 1.967,0.791 1.967,2.578 V 0 h 1.055 v -4.713 c 0,-2.482 -1.307,-3.502 -3.058,-3.502 -1.655,0 -2.903,0.947 -2.903,3.454 l 0,4.761 z"
             style="fill:#c6c8ca;fill-opacity:1;fill-rule:nonzero;stroke:none"
             id="path162" /></g><g
           id="g164"
           transform="translate(104.1147,296.2246)"><path
             d="M 0,0 V 8.083 H 1.139 L 3.73,3.993 C 4.33,3.046 4.797,2.194 5.181,1.367 L 5.205,1.38 C 5.109,2.458 5.085,3.442 5.085,4.701 V 8.083 H 6.068 V 0 H 5.013 L 2.447,4.102 C 1.883,5.001 1.343,5.925 0.936,6.8 L 0.899,6.788 C 0.959,5.769 0.983,4.798 0.983,3.454 V 0 Z"
             style="fill:#c6c8ca;fill-opacity:1;fill-rule:nonzero;stroke:none"
             id="path166" /></g><g
           id="g168"
           transform="translate(113.0542,297.0518)"><path
             d="m 0,0 c 0.264,-0.047 0.647,-0.06 1.055,-0.06 2.231,0 3.443,1.248 3.443,3.431 C 4.509,5.277 3.43,6.488 1.223,6.488 0.684,6.488 0.276,6.441 0,6.381 Z m -1.043,7.148 c 0.635,0.096 1.391,0.168 2.218,0.168 1.499,0 2.567,-0.347 3.274,-1.007 0.72,-0.66 1.14,-1.595 1.14,-2.903 C 5.589,2.088 5.181,1.008 4.425,0.264 3.67,-0.491 2.422,-0.898 0.852,-0.898 c -0.744,0 -1.368,0.035 -1.895,0.095 z"
             style="fill:#c6c8ca;fill-opacity:1;fill-rule:nonzero;stroke:none"
             id="path170" /></g><path
           d="m 124.957,299.079 h -2.962 v 0.779 h 2.962 z"
           style="fill:#c6c8ca;fill-opacity:1;fill-rule:nonzero;stroke:none"
           id="path172" /><g
           id="g174"
           transform="translate(127.2739,297.0518)"><path
             d="m 0,0 c 0.264,-0.047 0.647,-0.06 1.055,-0.06 2.231,0 3.443,1.248 3.443,3.431 C 4.509,5.277 3.43,6.488 1.223,6.488 0.684,6.488 0.276,6.441 0,6.381 Z m -1.043,7.148 c 0.635,0.096 1.391,0.168 2.218,0.168 1.499,0 2.567,-0.347 3.274,-1.007 0.72,-0.66 1.14,-1.595 1.14,-2.903 C 5.589,2.088 5.181,1.008 4.425,0.264 3.67,-0.491 2.422,-0.898 0.852,-0.898 c -0.744,0 -1.368,0.035 -1.895,0.095 z"
             style="fill:#c6c8ca;fill-opacity:1;fill-rule:nonzero;stroke:none"
             id="path176" /></g><g
           id="g178"
           transform="translate(138.0117,299.583)"><path
             d="M 0,0 -0.792,2.326 C -0.971,2.854 -1.091,3.334 -1.211,3.802 H -1.235 C -1.355,3.322 -1.487,2.83 -1.643,2.338 L -2.435,0 Z m -2.65,-0.816 -0.84,-2.542 h -1.079 l 2.746,8.083 h 1.26 L 2.195,-3.358 H 1.08 l -0.864,2.542 z"
             style="fill:#c6c8ca;fill-opacity:1;fill-rule:nonzero;stroke:none"
             id="path180" /></g><g
           id="g182"
           transform="translate(142.4419,300.5186)"><path
             d="M 0,0 H 1.067 C 2.183,0 2.89,0.611 2.89,1.535 2.89,2.578 2.135,3.034 1.031,3.046 0.527,3.046 0.168,2.998 0,2.95 Z M -1.043,3.682 C -0.516,3.789 0.24,3.85 0.959,3.85 2.075,3.85 2.794,3.646 3.298,3.189 3.706,2.83 3.934,2.278 3.934,1.654 3.934,0.588 3.262,-0.12 2.411,-0.408 V -0.443 C 3.034,-0.66 3.406,-1.236 3.598,-2.075 3.862,-3.203 4.054,-3.982 4.222,-4.294 H 3.142 C 3.01,-4.066 2.83,-3.371 2.603,-2.363 2.363,-1.248 1.931,-0.828 0.983,-0.792 H 0 v -3.502 h -1.043 z"
             style="fill:#c6c8ca;fill-opacity:1;fill-rule:nonzero;stroke:none"
             id="path184" /></g><g
           id="g186"
           transform="translate(147.854,304.3076)"><path
             d="m 0,0 h 1.043 v -3.897 h 0.036 c 0.216,0.311 0.432,0.599 0.636,0.864 L 4.186,0 H 5.481 L 2.555,-3.43 5.708,-8.083 H 4.474 L 1.811,-4.113 1.043,-5 V -8.083 H 0 Z"
             style="fill:#c6c8ca;fill-opacity:1;fill-rule:nonzero;stroke:none"
             id="path188" /></g><path
           d="M 565.928,300.782 H 161 v 1 h 404.928 z"
           style="fill:#c6c8ca;fill-opacity:1;fill-rule:nonzero;stroke:none"
           id="path190" /><g
           id="g192"
           transform="translate(54.1641,767.5879)"><path
             d="m 0,0 h -2.325 c 0.037,-0.128 0.068,-0.258 0.093,-0.39 0.025,-0.132 0.038,-0.27 0.038,-0.414 0,-0.128 -0.011,-0.254 -0.033,-0.378 -0.021,-0.124 -0.05,-0.242 -0.086,-0.354 H 0 Z m -4.6,-7.536 c 0.506,-0.24 1.162,-0.36 1.97,-0.36 0.8,0 1.455,0.116 1.964,0.348 0.509,0.232 0.764,0.556 0.764,0.972 0,0.424 -0.255,0.758 -0.764,1.002 -0.509,0.244 -1.164,0.366 -1.964,0.366 -0.808,0 -1.464,-0.116 -1.97,-0.348 -0.506,-0.232 -0.758,-0.564 -0.758,-0.996 0,-0.416 0.252,-0.744 0.758,-0.984 m 4.638,-0.522 c -0.607,-0.38 -1.497,-0.57 -2.668,-0.57 -1.164,0 -2.052,0.194 -2.663,0.582 -0.611,0.388 -0.916,0.886 -0.916,1.494 0,0.608 0.305,1.108 0.916,1.5 0.611,0.392 1.499,0.588 2.663,0.588 1.171,0 2.061,-0.2 2.668,-0.6 0.608,-0.4 0.911,-0.904 0.911,-1.512 0,-0.608 -0.303,-1.102 -0.911,-1.482 m -3.547,8.514 c -0.302,0.344 -0.74,0.516 -1.315,0.516 -0.567,0 -1.004,-0.172 -1.309,-0.516 -0.306,-0.344 -0.459,-0.764 -0.459,-1.26 0,-0.488 0.153,-0.908 0.459,-1.26 0.305,-0.352 0.742,-0.528 1.309,-0.528 0.575,0 1.013,0.176 1.315,0.528 0.302,0.352 0.453,0.772 0.453,1.26 0,0.496 -0.151,0.916 -0.453,1.26 M 0,-4.284 v 2.004 h -2.663 c -0.226,-0.328 -0.524,-0.592 -0.895,-0.792 -0.371,-0.2 -0.793,-0.3 -1.266,-0.3 -0.763,0 -1.393,0.252 -1.887,0.756 -0.496,0.504 -0.743,1.108 -0.743,1.812 0,0.712 0.247,1.318 0.743,1.818 0.494,0.5 1.124,0.75 1.887,0.75 0.451,0 0.861,-0.094 1.228,-0.282 0.367,-0.188 0.664,-0.438 0.889,-0.75 H 0 v 1.392 h 0.808 v -6.408 z"
             style="fill:#c6c8ca;fill-opacity:1;fill-rule:nonzero;stroke:none"
             id="path194" /></g><path
           d="m 79.023,768.56 h -5.369 v -2.328 h 5.369 z m -6.176,-9.168 v 2.88 h 0.818 v -2.136 h 6.493 v -0.744 z m 0,9.912 h 6.995 v -3.816 h -6.995 z m 4.037,-5.88 v -2.352 h -0.818 v 2.352 h -4.529 v 0.744 h 9.604 v -0.744 z"
           style="fill:#c6c8ca;fill-opacity:1;fill-rule:nonzero;stroke:none"
           id="path196" /><g
           id="g198"
           transform="translate(486.7305,798.958)"><path
             d="m 0,0 h 0.926 c 1.111,0 2.111,0.258 2.111,1.533 0,1.465 -1.173,1.668 -2.234,1.668 L 0,3.201 Z m 0,4.313 h 0.679 c 1.198,0 2.21,0.123 2.21,1.52 0,1.126 -0.876,1.411 -1.592,1.411 H 0 Z m -1.234,4.043 h 2.333 c 1.79,0 3.024,-0.637 3.024,-2.387 0,-1.302 -0.691,-1.954 -1.777,-2.252 V 3.69 c 1.173,-0.109 2,-0.95 2,-2.279 0,-2.035 -1.532,-2.523 -3.284,-2.523 h -2.296 z"
             style="fill:#ffffff;fill-opacity:1;fill-rule:nonzero;stroke:none"
             id="path200" /></g><g
           id="g202"
           transform="translate(493.0986,807.314)"><path
             d="M 0,0 H 1.234 V -8.274 H 4.839 V -9.468 H 0 Z"
             style="fill:#ffffff;fill-opacity:1;fill-rule:nonzero;stroke:none"
             id="path204" /></g><g
           id="g206"
           transform="translate(505.9854,801.7661)"><path
             d="m 0,0 c 0,-2.659 -1.223,-4.083 -3.346,-4.083 -2.123,0 -3.344,1.424 -3.344,4.083 v 5.548 h 1.234 V 0.176 c 0,-1.818 0.518,-3.066 2.11,-3.066 1.593,0 2.112,1.248 2.112,3.066 V 5.548 H 0 Z"
             style="fill:#ffffff;fill-opacity:1;fill-rule:nonzero;stroke:none"
             id="path208" /></g><g
           id="g210"
           transform="translate(508.2539,807.314)"><path
             d="M 0,0 H 4.827 V -1.193 H 1.234 V -3.961 H 4.506 V -5.155 H 1.234 V -8.274 H 4.827 V -9.468 H 0 Z"
             style="fill:#ffffff;fill-opacity:1;fill-rule:nonzero;stroke:none"
             id="path212" /></g><g
           id="g214"
           transform="translate(518.7578,798.8765)"><path
             d="M 0,0 C 1.987,0 2.84,1.818 2.84,3.704 2.84,5.63 1.901,7.42 0,7.407 -1.9,7.42 -2.839,5.63 -2.839,3.704 -2.839,1.818 -1.987,0 0,0 m 0,8.601 c 2.617,0 4.147,-2.09 4.147,-4.897 0,-2.876 -1.517,-4.897 -4.147,-4.897 -2.629,0 -4.147,2.021 -4.147,4.897 0,2.807 1.53,4.897 4.147,4.897"
             style="fill:#ffffff;fill-opacity:1;fill-rule:nonzero;stroke:none"
             id="path216" /></g><g
           id="g218"
           transform="translate(524.6436,807.314)"><path
             d="M 0,0 H 1.679 L 5.481,-7.624 H 5.506 V 0 H 6.74 V -9.468 H 5.16 l -3.9,7.786 H 1.234 V -9.468 H 0 Z"
             style="fill:#ffffff;fill-opacity:1;fill-rule:nonzero;stroke:none"
             id="path220" /></g><g
           id="g222"
           transform="translate(533.6289,807.314)"><path
             d="M 0,0 H 4.827 V -1.193 H 1.234 V -3.961 H 4.506 V -5.155 H 1.234 V -8.274 H 4.827 V -9.468 H 0 Z"
             style="fill:#ffffff;fill-opacity:1;fill-rule:nonzero;stroke:none"
             id="path224" /></g><g
           id="g226"
           transform="translate(543.8477,807.314)"><path
             d="M 0,0 H 1.234 V -8.274 H 4.84 V -9.468 H 0 Z"
             style="fill:#ffffff;fill-opacity:1;fill-rule:nonzero;stroke:none"
             id="path228" /></g><g
           id="g230"
           transform="translate(553.7344,798.8765)"><path
             d="M 0,0 C 1.987,0 2.84,1.818 2.84,3.704 2.84,5.63 1.901,7.42 0,7.407 -1.9,7.42 -2.839,5.63 -2.839,3.704 -2.839,1.818 -1.987,0 0,0 m 0,8.601 c 2.617,0 4.147,-2.09 4.147,-4.897 0,-2.876 -1.517,-4.897 -4.147,-4.897 -2.629,0 -4.147,2.021 -4.147,4.897 0,2.807 1.53,4.897 4.147,4.897"
             style="fill:#ffffff;fill-opacity:1;fill-rule:nonzero;stroke:none"
             id="path232" /></g><g
           id="g234"
           transform="translate(566.1758,805.6318)"><path
             d="m 0,0 c -0.605,0.434 -1.26,0.651 -2.37,0.651 -1.988,0 -3.309,-1.587 -3.309,-3.703 0,-2.224 1.456,-3.703 3.246,-3.703 0.853,0 1.075,0.095 1.383,0.163 v 2.875 h -1.814 v 1.113 h 3.049 v -4.924 c -0.469,-0.177 -1.284,-0.421 -2.629,-0.421 -2.729,0 -4.543,1.927 -4.543,4.938 0,2.916 1.925,4.856 4.554,4.856 1.26,0 1.816,-0.203 2.532,-0.475 z"
             style="fill:#ffffff;fill-opacity:1;fill-rule:nonzero;stroke:none"
             id="path236" /></g><g
           id="g238"
           transform="translate(572.2471,798.8765)"><path
             d="M 0,0 C 1.987,0 2.84,1.818 2.84,3.704 2.84,5.63 1.901,7.42 0,7.407 -1.9,7.42 -2.839,5.63 -2.839,3.704 -2.839,1.818 -1.987,0 0,0 m 0,8.601 c 2.617,0 4.147,-2.09 4.147,-4.897 0,-2.876 -1.517,-4.897 -4.147,-4.897 -2.629,0 -4.147,2.021 -4.147,4.897 0,2.807 1.53,4.897 4.147,4.897"
             style="fill:#ffffff;fill-opacity:1;fill-rule:nonzero;stroke:none"
             id="path240" /></g><path
           d="M 595.28,765.39 H 101 v 1 h 494.28 z"
           style="fill:#c6c8ca;fill-opacity:1;fill-rule:nonzero;stroke:none"
           id="path242" /><path
           d="M 565.928,46.89 H 46 v 229.201 h 519.928 z"
           style="fill:#231f20;fill-opacity:1;fill-rule:nonzero;stroke:none"
           id="path244" /></g></g><g
       id="g246"><g
         id="g248"><g
           id="g254"><g
             id="g256"><path
               d="m 193.032,600.979 v -26.394 c 0,-1.674 0.293,-3.214 0.881,-4.626 v 0 c 0.588,-1.407 1.42,-2.626 2.494,-3.648 v 0 c 1.038,-0.99 2.296,-1.78 3.76,-2.369 v 0 c 1.465,-0.587 3.046,-0.881 4.742,-0.881 v 0 h 12.062 v 6.411 h -7.568 c -1.859,0 -3.387,0.15 -4.594,0.443 v 0 c -1.207,0.293 -2.151,0.78 -2.836,1.463 v 0 c -0.748,0.649 -1.262,1.525 -1.536,2.628 v 0 c -0.277,1.098 -0.418,2.438 -0.418,4.015 v 0 22.958 z"
               style="fill:url(#linearGradient262);stroke:none"
               id="path264" /></g></g></g></g><g
       id="g266"><g
         id="g268"><g
           id="g274"><g
             id="g276"><path
               d="m 246.609,600.979 v -22.725 c 0,-1.266 -0.198,-2.461 -0.584,-3.574 v 0 c -0.393,-1.117 -0.96,-2.095 -1.713,-2.927 v 0 c -0.749,-0.836 -1.641,-1.496 -2.687,-1.979 v 0 c -1.042,-0.478 -2.212,-0.72 -3.52,-0.72 v 0 c -1.302,0 -2.485,0.242 -3.539,0.72 v 0 c -1.058,0.483 -1.963,1.143 -2.711,1.979 v 0 c -0.72,0.832 -1.279,1.81 -1.685,2.927 v 0 c -0.413,1.113 -0.611,2.308 -0.611,3.574 v 0 22.725 h -7.088 v -24.44 c 0,-1.982 0.384,-3.853 1.144,-5.598 v 0 c 0.768,-1.753 1.853,-3.278 3.254,-4.582 v 0 c 1.37,-1.331 3.015,-2.369 4.937,-3.109 v 0 c 1.919,-0.746 4.023,-1.118 6.299,-1.118 v 0 c 2.28,0 4.386,0.372 6.303,1.118 v 0 c 1.923,0.74 3.589,1.778 4.987,3.109 v 0 c 1.368,1.304 2.434,2.829 3.198,4.582 v 0 c 0.769,1.745 1.15,3.616 1.15,5.598 v 0 24.44 z"
               style="fill:url(#linearGradient282);stroke:none"
               id="path284" /></g></g></g></g><g
       id="g286"><g
         id="g288"><g
           id="g294"><g
             id="g296"><path
               d="m 273.123,600.979 c -1.695,0 -3.266,-0.285 -4.721,-0.861 v 0 c -1.447,-0.575 -2.693,-1.37 -3.736,-2.393 v 0 c -1.042,-1.054 -1.866,-2.285 -2.467,-3.693 v 0 c -0.601,-1.41 -0.903,-2.935 -0.903,-4.577 v 0 -14.915 c 0,-1.642 0.302,-3.17 0.903,-4.578 v 0 c 0.601,-1.415 1.425,-2.627 2.467,-3.651 v 0 c 1.043,-0.99 2.289,-1.776 3.736,-2.367 v 0 c 1.455,-0.589 3.026,-0.883 4.721,-0.883 v 0 h 17.883 v 6.414 h -13.338 c -1.859,0 -3.382,0.155 -4.569,0.463 v 0 c -1.191,0.309 -2.142,0.82 -2.86,1.536 v 0 c -0.722,0.676 -1.221,1.577 -1.514,2.693 v 0 c -0.291,1.118 -0.44,2.461 -0.44,4.04 v 0 0.513 h 20.034 v 6.411 h -20.034 v 0.884 c 0,1.577 0.149,2.912 0.44,3.995 v 0 c 0.293,1.087 0.792,1.971 1.514,2.646 v 0 c 0.718,0.655 1.669,1.135 2.86,1.445 v 0 c 1.187,0.309 2.71,0.466 4.569,0.466 v 0 h 12.512 v 6.412 z"
               style="fill:url(#linearGradient302);stroke:none"
               id="path304" /></g></g></g></g><g
       id="g306"><g
         id="g308"
         clip-path="url(#clipPath312)"><g
           id="g314"
           transform="translate(391.1377,600.9785)"><path
             d="m 0,0 v -37.913 l -7.035,0.044 c -0.164,0 -0.382,0.024 -0.659,0.068 -0.279,0.048 -0.516,0.194 -0.707,0.443 -0.034,0 -0.303,0.418 -0.807,1.253 -0.506,0.838 -1.165,1.936 -1.978,3.3 -0.848,1.363 -1.809,2.94 -2.884,4.738 -1.074,1.794 -2.184,3.658 -3.323,5.577 -1.172,1.951 -2.364,3.912 -3.568,5.876 -1.205,1.973 -2.327,3.821 -3.369,5.557 v -26.856 h -6.986 V 0 h 7.376 c 0.197,0 0.415,-0.016 0.664,-0.043 0.242,-0.034 0.474,-0.174 0.704,-0.419 0.031,-0.033 0.309,-0.491 0.833,-1.371 0.518,-0.886 1.218,-2.04 2.098,-3.464 0.818,-1.424 1.767,-3.045 2.857,-4.855 1.094,-1.81 2.224,-3.664 3.398,-5.551 1.107,-1.956 2.225,-3.853 3.347,-5.693 1.126,-1.842 2.14,-3.542 3.053,-5.088 l 0,26.484 z"
             style="fill:#02a0c8;fill-opacity:1;fill-rule:nonzero;stroke:none"
             id="path316" /></g><g
           id="g318"
           transform="translate(428.4004,569.4751)"><path
             d="m 0,0 v -6.414 h -17.88 c -1.692,0 -3.266,0.294 -4.714,0.883 -1.451,0.591 -2.698,1.377 -3.74,2.367 -1.042,1.024 -1.866,2.236 -2.466,3.651 -0.607,1.408 -0.913,2.935 -0.913,4.578 v 14.914 c 0,1.644 0.306,3.168 0.913,4.578 0.6,1.408 1.424,2.639 2.466,3.693 1.042,1.023 2.289,1.818 3.74,2.393 1.448,0.576 3.022,0.86 4.714,0.86 h 17.052 v -6.411 h -12.509 c -1.856,0 -3.38,-0.156 -4.57,-0.466 -1.192,-0.31 -2.14,-0.79 -2.856,-1.444 -0.717,-0.676 -1.222,-1.559 -1.513,-2.647 -0.293,-1.083 -0.441,-2.418 -0.441,-3.994 V 15.656 H -2.684 V 9.245 H -22.717 V 8.731 c 0,-1.578 0.148,-2.921 0.441,-4.039 0.291,-1.116 0.796,-2.018 1.513,-2.693 0.716,-0.717 1.664,-1.227 2.856,-1.537 C -16.717,0.154 -15.193,0 -13.337,0 Z"
             style="fill:#02a0c8;fill-opacity:1;fill-rule:nonzero;stroke:none"
             id="path320" /></g></g></g><g
       id="g322"><g
         id="g324"><g
           id="g330"><g
             id="g332"><path
               d="m 156.679,600.979 v -38.405 h 18.556 c 1.356,0 2.531,0.101 3.52,0.304 v 0 c 0.994,0.203 1.817,0.445 2.477,0.731 v 0 c 0.693,0.309 1.239,0.635 1.632,0.962 v 0 c 0.394,0.332 0.704,0.618 0.921,0.871 v 0 c 0.784,0.849 1.43,1.847 1.939,2.989 v 0 c 0.499,1.146 0.751,2.566 0.751,4.26 v 0 2.727 c 0,1.697 -0.321,3.149 -0.965,4.356 v 0 c -0.647,1.207 -1.363,2.202 -2.148,2.989 v 0 c 0.503,0.753 0.94,1.638 1.32,2.659 v 0 c 0.378,1.021 0.567,2.17 0.567,3.456 v 0 1.792 c 0,1.661 -0.263,3.105 -0.781,4.332 v 0 c -0.518,1.222 -1.14,2.24 -1.864,3.057 v 0 c -0.221,0.253 -0.545,0.543 -0.97,0.873 v 0 c -0.425,0.328 -0.964,0.651 -1.628,0.966 v 0 c -0.692,0.28 -1.524,0.53 -2.502,0.751 v 0 c -0.977,0.222 -2.14,0.33 -3.492,0.33 v 0 z m 6.753,-25.962 v 3.791 6.734 4.514 4.194 h 10.484 c 1.195,0 2.229,-0.379 3.093,-1.131 v 0 c 0.862,-0.756 1.3,-1.87 1.3,-3.342 v 0 c 0,-1.506 -0.378,-2.591 -1.139,-3.248 v 0 c -0.751,-0.66 -1.634,-0.987 -2.643,-0.987 v 0 h -2.95 v -6.734 h 2.435 c 0.726,0 1.425,-0.067 2.096,-0.211 v 0 c 0.68,-0.141 1.271,-0.397 1.775,-0.774 v 0 c 0.534,-0.376 0.949,-0.872 1.251,-1.485 v 0 c 0.297,-0.609 0.446,-1.375 0.446,-2.285 v 0 c -0.061,-1.724 -0.446,-2.947 -1.154,-3.671 v 0 c -0.708,-0.721 -1.807,-1.083 -3.285,-1.083 v 0 h -11.709 z"
               style="fill:url(#linearGradient338);stroke:none"
               id="path340" /></g></g></g></g><g
       id="g342"><g
         id="g344"
         clip-path="url(#clipPath348)"><g
           id="g350"
           transform="translate(300.4648,547.3809)"><path
             d="M 0,0 V 1.352 H 11.073 C 11.27,1.352 11.37,1.206 11.37,0.909 11.37,0.302 11.174,0 10.778,0 Z m -0.277,-6.08 v 1.356 h 2.212 v 4.04 h 1.637 v -4.04 h 4.091 v 4.04 h 1.605 v -4.04 h 2.083 c 0.209,0 0.309,-0.151 0.309,-0.448 0,-0.604 -0.194,-0.908 -0.587,-0.908 z m -1.751,-3.667 h 14.982 c 0.219,0 0.33,-0.155 0.33,-0.463 0,-0.63 -0.202,-0.946 -0.609,-0.946 H -2.028 Z"
             style="fill:#58595b;fill-opacity:1;fill-rule:nonzero;stroke:none"
             id="path352" /></g><g
           id="g354"
           transform="translate(335.3672,534.6504)"><path
             d="m 0,0 c 0,-1.125 -0.313,-1.687 -0.94,-1.687 h -0.257 c -0.294,0 -0.445,0.142 -0.445,0.428 V 14.729 H 0 Z m -12.511,9.061 h 5.877 c 0.159,0 0.241,0.137 0.241,0.408 v 3.075 h -6.118 v 1.355 h 7.056 c 0.455,0 0.684,-0.223 0.684,-0.669 V 9.839 c 0,-1.422 -0.352,-2.129 -1.05,-2.129 h -5.068 V 4.446 c 0,-0.21 0.097,-0.315 0.293,-0.315 h 6.874 c 0.197,0 0.294,-0.137 0.294,-0.406 0,-0.631 -0.196,-0.945 -0.587,-0.945 h -7.15 c -0.899,0 -1.346,0.457 -1.346,1.369 z"
             style="fill:#58595b;fill-opacity:1;fill-rule:nonzero;stroke:none"
             id="path356" /></g><g
           id="g358"
           transform="translate(358.4053,534.6504)"><path
             d="m 0,0 c 0,-1.125 -0.312,-1.687 -0.939,-1.687 h -0.258 c -0.296,0 -0.444,0.142 -0.444,0.428 V 14.729 H 0 Z m -6.966,4.464 c 0.244,0 0.368,0.243 0.368,0.724 v 7.356 H -10.89 V 4.891 c 0,-0.285 0.14,-0.427 0.425,-0.427 z m 1.991,0.963 c 0,-1.556 -0.394,-2.333 -1.179,-2.333 h -4.995 c -0.909,0 -1.363,0.458 -1.363,1.37 v 9.435 h 6.855 c 0.456,0 0.682,-0.223 0.682,-0.669 z"
             style="fill:#58595b;fill-opacity:1;fill-rule:nonzero;stroke:none"
             id="path360" /></g><g
           id="g362"
           transform="translate(377.5352,546.0283)"><path
             d="M 0,0 H 2.396 V 3.352 H 4.018 V -3.856 C 4.018,-4.979 3.699,-5.54 3.059,-5.54 H 2.82 c -0.284,0 -0.424,0.142 -0.424,0.425 v 3.743 l -2.396,0 z m 2.046,-11.526 c 0.243,0 0.368,0.246 0.368,0.742 v 2.925 h -7.112 v -3.222 c 0,-0.297 0.142,-0.445 0.425,-0.445 z m 1.972,0.982 c 0,-1.558 -0.395,-2.335 -1.179,-2.335 h -7.777 c -0.918,0 -1.379,0.452 -1.379,1.353 v 5.039 h 9.652 c 0.455,0 0.683,-0.228 0.683,-0.684 z m -8.879,6.818 c 0.34,-0.011 0.672,0.058 0.986,0.203 0.311,0.151 0.583,0.352 0.816,0.612 0.223,0.247 0.402,0.539 0.534,0.872 0.138,0.333 0.205,0.685 0.205,1.055 0,0.372 -0.067,0.726 -0.205,1.059 C -2.657,0.408 -2.836,0.699 -3.059,0.944 -3.292,1.179 -3.564,1.367 -3.875,1.51 -4.189,1.651 -4.521,1.723 -4.861,1.723 -5.246,1.723 -5.588,1.651 -5.896,1.51 -6.202,1.367 -6.468,1.179 -6.689,0.944 -6.921,0.699 -7.099,0.408 -7.224,0.075 c -0.121,-0.333 -0.184,-0.687 -0.184,-1.059 -0.011,-0.37 0.049,-0.722 0.178,-1.055 0.127,-0.333 0.309,-0.625 0.541,-0.872 0.221,-0.26 0.487,-0.461 0.793,-0.612 0.308,-0.145 0.65,-0.214 1.035,-0.203 m 0.016,6.802 c 0.638,0 1.215,-0.108 1.731,-0.325 0.515,-0.215 0.954,-0.508 1.31,-0.88 0.357,-0.372 0.63,-0.804 0.819,-1.297 0.19,-0.494 0.285,-1.02 0.285,-1.576 0,-0.566 -0.095,-1.098 -0.285,-1.594 -0.189,-0.493 -0.462,-0.927 -0.819,-1.296 -0.356,-0.369 -0.795,-0.665 -1.31,-0.881 -0.516,-0.214 -1.093,-0.325 -1.731,-0.325 -0.651,0 -1.231,0.111 -1.743,0.325 -0.509,0.216 -0.942,0.512 -1.298,0.881 -0.355,0.369 -0.633,0.803 -0.83,1.296 -0.195,0.496 -0.296,1.028 -0.296,1.594 0,0.556 0.101,1.082 0.296,1.576 0.197,0.493 0.475,0.925 0.83,1.297 0.356,0.372 0.789,0.665 1.298,0.88 0.512,0.217 1.092,0.325 1.743,0.325"
             style="fill:#58595b;fill-opacity:1;fill-rule:nonzero;stroke:none"
             id="path364" /></g><g
           id="g366"
           transform="translate(404.1289,541.4707)"><path
             d="m 0,0 c 0,-1.125 -0.311,-1.688 -0.938,-1.688 h -0.26 c -0.281,0 -0.424,0.142 -0.424,0.428 V 7.909 H 0 v -3.61 h 2.322 c 0.211,0 0.313,-0.145 0.313,-0.429 0,-0.616 -0.19,-0.927 -0.57,-0.927 L 0,2.943 Z m -1.603,-4.004 h -8.386 v 1.352 h 9.327 C -0.22,-2.652 0,-2.88 0,-3.338 v -3.427 c 0,-1.123 -0.311,-1.687 -0.938,-1.687 h -0.241 c -0.284,0 -0.424,0.149 -0.424,0.445 z M -12.217,7.262 h 7.7 c 0.224,0 0.335,-0.136 0.335,-0.407 0,-0.607 -0.205,-0.908 -0.607,-0.908 h -5.806 v -2.02 h 5.694 c 0.221,0 0.332,-0.135 0.332,-0.408 0,-0.594 -0.202,-0.891 -0.609,-0.891 h -5.417 V 0.89 c 0,-0.238 0.124,-0.354 0.369,-0.354 h 6.743 c 0.209,0 0.313,-0.149 0.313,-0.445 0,-0.593 -0.189,-0.891 -0.569,-0.891 h -7.132 c -0.897,0 -1.346,0.457 -1.346,1.374 z"
             style="fill:#58595b;fill-opacity:1;fill-rule:nonzero;stroke:none"
             id="path368" /></g><g
           id="g370"
           transform="translate(421.2715,534.0752)"><path
             d="m 0,0 c 0.541,0 1.047,0.05 1.519,0.148 0.473,0.099 0.888,0.229 1.245,0.391 0.34,0.171 0.615,0.372 0.822,0.603 0.199,0.227 0.3,0.464 0.3,0.712 0,0.259 -0.101,0.499 -0.3,0.721 C 3.379,2.798 3.104,2.995 2.764,3.168 2.407,3.328 1.992,3.46 1.519,3.559 1.047,3.657 0.541,3.707 0,3.707 -0.564,3.707 -1.09,3.657 -1.566,3.559 -2.048,3.46 -2.459,3.328 -2.8,3.168 -3.145,2.995 -3.41,2.798 -3.595,2.575 -3.777,2.353 -3.868,2.113 -3.868,1.854 -3.868,1.606 -3.777,1.369 -3.595,1.142 -3.41,0.911 -3.145,0.71 -2.8,0.539 -2.459,0.377 -2.048,0.247 -1.566,0.148 -1.09,0.05 -0.564,0 0,0 M 0.019,5.039 C 0.853,5.039 1.613,4.959 2.294,4.8 2.975,4.638 3.55,4.416 4.016,4.131 4.483,3.849 4.846,3.514 5.106,3.131 5.361,2.748 5.49,2.335 5.49,1.89 5.49,1.447 5.367,1.027 5.124,0.64 4.877,0.251 4.525,-0.091 4.071,-0.388 3.604,-0.684 3.028,-0.917 2.34,-1.084 1.652,-1.25 0.877,-1.333 0.019,-1.333 c -0.849,0 -1.616,0.083 -2.296,0.249 -0.683,0.167 -1.254,0.392 -1.722,0.678 -0.468,0.298 -0.828,0.638 -1.089,1.027 -0.255,0.388 -0.387,0.799 -0.387,1.233 0,0.444 0.132,0.857 0.387,1.241 0.261,0.384 0.621,0.722 1.089,1.018 0.468,0.285 1.039,0.511 1.722,0.678 0.68,0.167 1.447,0.248 2.296,0.248 M -0.83,15.305 h 1.677 v -0.424 c 0,-0.493 0.131,-0.961 0.396,-1.399 0.265,-0.441 0.63,-0.838 1.097,-1.196 0.454,-0.37 0.998,-0.691 1.63,-0.963 0.632,-0.272 1.318,-0.495 2.053,-0.67 C 6.209,10.582 6.3,10.444 6.3,10.248 6.3,9.977 6.229,9.759 6.082,9.6 5.931,9.439 5.793,9.357 5.658,9.357 5.584,9.357 5.528,9.365 5.49,9.375 4.888,9.535 4.307,9.728 3.739,9.942 3.175,10.156 2.658,10.396 2.193,10.653 1.713,10.915 1.283,11.199 0.91,11.507 0.537,11.818 0.238,12.144 0.019,12.489 -0.51,11.773 -1.252,11.156 -2.203,10.636 -3.153,10.118 -4.245,9.698 -5.475,9.375 -5.51,9.365 -5.568,9.357 -5.64,9.357 c -0.134,0 -0.278,0.082 -0.423,0.243 -0.148,0.159 -0.221,0.377 -0.221,0.648 0,0.21 0.105,0.351 0.313,0.427 0.723,0.171 1.404,0.399 2.034,0.675 0.633,0.278 1.184,0.596 1.652,0.957 0.453,0.355 0.81,0.753 1.068,1.184 0.258,0.432 0.387,0.897 0.387,1.39 z M 0.811,9.914 V 7.617 h 6.521 c 0.222,0 0.334,-0.15 0.334,-0.446 0,-0.616 -0.204,-0.926 -0.609,-0.926 H -7.648 v 1.372 h 6.856 v 2.297 z"
             style="fill:#58595b;fill-opacity:1;fill-rule:nonzero;stroke:none"
             id="path372" /></g><path
           d="m 288.319,540.327 h -131.64 v 0.75 h 131.64 z"
           style="fill:#58595b;fill-opacity:1;fill-rule:nonzero;stroke:none"
           id="path374" /><g
           id="g376"
           transform="translate(316.6533,601.3115)"><path
             d="m 0,0 c 10.051,6.352 23.061,4.166 30.548,-4.633 -0.453,1.003 -0.978,1.99 -1.585,2.951 -6.958,11.006 -21.529,14.291 -32.533,7.33 -11.012,-6.961 -14.29,-21.527 -7.332,-32.538 0.608,-0.956 1.272,-1.854 1.987,-2.694 C -13.656,-19.044 -10.051,-6.356 0,0"
             style="fill:#b3d334;fill-opacity:1;fill-rule:nonzero;stroke:none"
             id="path378" /></g><g
           id="g380"
           transform="translate(346.4365,580.2988)"><path
             d="m 0,0 c 0.465,-11.88 -7.949,-22.047 -19.317,-24.115 1.095,-0.111 2.214,-0.152 3.352,-0.105 13.01,0.505 23.153,11.469 22.644,24.48 -0.508,13.018 -11.47,23.153 -24.485,22.646 -1.133,-0.043 -2.245,-0.17 -3.329,-0.368 C -9.638,21.361 -0.462,11.882 0,0"
             style="fill:#00b8b6;fill-opacity:1;fill-rule:nonzero;stroke:none"
             id="path382" /></g><g
           id="g384"
           transform="translate(313.335,564.9961)"><path
             d="m 0,0 c -10.514,5.549 -15.096,17.924 -11.189,28.797 -0.647,-0.893 -1.243,-1.838 -1.772,-2.846 -6.082,-11.513 -1.677,-25.784 9.84,-31.861 11.52,-6.085 25.783,-1.675 31.867,9.841 0.528,1 0.975,2.026 1.349,3.063 C 23.315,-2.363 10.515,-5.554 0,0"
             style="fill:#0089d0;fill-opacity:1;fill-rule:nonzero;stroke:none"
             id="path386" /></g></g></g><g
       id="g388"><g
         id="g390"><g
           id="g396"><g
             id="g398"><path
               d="m 193.032,695.262 v -26.394 c 0,-1.673 0.293,-3.214 0.881,-4.626 v 0 c 0.588,-1.407 1.42,-2.626 2.494,-3.647 v 0 c 1.038,-0.99 2.296,-1.781 3.76,-2.37 v 0 c 1.465,-0.587 3.046,-0.881 4.742,-0.881 v 0 h 12.062 v 6.411 h -7.568 c -1.859,0 -3.387,0.15 -4.594,0.443 v 0 c -1.207,0.294 -2.151,0.781 -2.836,1.464 v 0 c -0.748,0.648 -1.262,1.524 -1.536,2.627 v 0 c -0.277,1.099 -0.418,2.438 -0.418,4.016 v 0 22.957 z"
               style="fill:url(#linearGradient404);stroke:none"
               id="path406" /></g></g></g></g><g
       id="g408"><g
         id="g410"><g
           id="g416"><g
             id="g418"><path
               d="m 246.609,695.262 v -22.723 c 0,-1.268 -0.198,-2.463 -0.584,-3.576 v 0 c -0.393,-1.117 -0.96,-2.095 -1.713,-2.927 v 0 c -0.749,-0.836 -1.641,-1.496 -2.687,-1.979 v 0 c -1.042,-0.478 -2.212,-0.719 -3.52,-0.719 v 0 c -1.302,0 -2.485,0.241 -3.539,0.719 v 0 c -1.058,0.483 -1.963,1.143 -2.711,1.979 v 0 c -0.72,0.832 -1.279,1.81 -1.685,2.927 v 0 c -0.413,1.113 -0.611,2.308 -0.611,3.576 v 0 22.723 h -7.088 v -24.439 c 0,-1.983 0.384,-3.854 1.144,-5.599 v 0 c 0.768,-1.753 1.853,-3.278 3.254,-4.582 v 0 c 1.37,-1.331 3.015,-2.369 4.937,-3.109 v 0 c 1.919,-0.745 4.023,-1.118 6.299,-1.118 v 0 c 2.28,0 4.386,0.373 6.303,1.118 v 0 c 1.923,0.74 3.589,1.778 4.987,3.109 v 0 c 1.368,1.304 2.434,2.829 3.198,4.582 v 0 c 0.769,1.745 1.15,3.616 1.15,5.599 v 0 24.439 z"
               style="fill:url(#linearGradient424);stroke:none"
               id="path426" /></g></g></g></g><g
       id="g428"><g
         id="g430"><g
           id="g436"><g
             id="g438"><path
               d="m 273.123,695.262 c -1.695,0 -3.266,-0.285 -4.721,-0.861 v 0 c -1.447,-0.575 -2.693,-1.37 -3.736,-2.393 v 0 c -1.042,-1.054 -1.866,-2.285 -2.467,-3.693 v 0 c -0.601,-1.41 -0.903,-2.934 -0.903,-4.577 v 0 -14.915 c 0,-1.642 0.302,-3.17 0.903,-4.578 v 0 c 0.601,-1.415 1.425,-2.627 2.467,-3.65 v 0 c 1.043,-0.99 2.289,-1.777 3.736,-2.367 v 0 c 1.455,-0.59 3.026,-0.884 4.721,-0.884 v 0 h 17.883 v 6.414 h -13.338 c -1.859,0 -3.382,0.155 -4.569,0.463 v 0 c -1.191,0.309 -2.142,0.82 -2.86,1.536 v 0 c -0.722,0.676 -1.221,1.577 -1.514,2.693 v 0 c -0.291,1.118 -0.44,2.461 -0.44,4.04 v 0 0.514 h 20.034 v 6.41 h -20.034 v 0.885 c 0,1.576 0.149,2.911 0.44,3.994 v 0 c 0.293,1.088 0.792,1.971 1.514,2.647 v 0 c 0.718,0.655 1.669,1.134 2.86,1.444 v 0 c 1.187,0.309 2.71,0.467 4.569,0.467 v 0 h 12.512 v 6.411 z"
               style="fill:url(#linearGradient444);stroke:none"
               id="path446" /></g></g></g></g><g
       id="g448"><g
         id="g450"
         clip-path="url(#clipPath454)"><g
           id="g456"
           transform="translate(391.1377,695.2617)"><path
             d="m 0,0 v -37.913 l -7.035,0.044 c -0.164,0 -0.382,0.024 -0.659,0.068 -0.279,0.048 -0.516,0.194 -0.707,0.443 -0.034,0 -0.303,0.418 -0.807,1.253 -0.506,0.838 -1.165,1.936 -1.978,3.3 -0.848,1.363 -1.809,2.94 -2.884,4.738 -1.074,1.794 -2.184,3.658 -3.323,5.577 -1.172,1.951 -2.364,3.912 -3.568,5.876 -1.205,1.973 -2.327,3.821 -3.369,5.557 v -26.856 h -6.986 V 0 h 7.376 c 0.197,0 0.415,-0.016 0.664,-0.043 0.242,-0.034 0.474,-0.174 0.704,-0.419 0.031,-0.033 0.309,-0.491 0.833,-1.371 0.518,-0.886 1.218,-2.04 2.098,-3.464 0.818,-1.424 1.767,-3.045 2.857,-4.855 1.094,-1.81 2.224,-3.664 3.398,-5.551 1.107,-1.956 2.225,-3.853 3.347,-5.693 1.126,-1.842 2.14,-3.542 3.053,-5.088 l 0,26.484 z"
             style="fill:#02a0c8;fill-opacity:1;fill-rule:nonzero;stroke:none"
             id="path458" /></g><g
           id="g460"
           transform="translate(428.4004,663.7583)"><path
             d="m 0,0 v -6.414 h -17.88 c -1.692,0 -3.266,0.294 -4.714,0.883 -1.451,0.591 -2.698,1.377 -3.74,2.367 -1.042,1.024 -1.866,2.236 -2.466,3.651 -0.607,1.408 -0.913,2.935 -0.913,4.578 v 14.914 c 0,1.644 0.306,3.168 0.913,4.578 0.6,1.408 1.424,2.639 2.466,3.693 1.042,1.023 2.289,1.818 3.74,2.393 1.448,0.576 3.022,0.86 4.714,0.86 h 17.052 v -6.411 h -12.509 c -1.856,0 -3.38,-0.156 -4.57,-0.466 -1.192,-0.31 -2.14,-0.79 -2.856,-1.444 -0.717,-0.676 -1.222,-1.559 -1.513,-2.647 -0.293,-1.083 -0.441,-2.418 -0.441,-3.994 V 15.656 H -2.684 V 9.245 H -22.717 V 8.731 c 0,-1.578 0.148,-2.921 0.441,-4.039 0.291,-1.116 0.796,-2.018 1.513,-2.693 0.716,-0.717 1.664,-1.227 2.856,-1.537 C -16.717,0.154 -15.193,0 -13.337,0 Z"
             style="fill:#02a0c8;fill-opacity:1;fill-rule:nonzero;stroke:none"
             id="path462" /></g></g></g><g
       id="g464"><g
         id="g466"><g
           id="g472"><g
             id="g474"><path
               d="m 156.679,695.262 v -38.404 h 18.556 c 1.356,0 2.531,0.101 3.52,0.304 v 0 c 0.994,0.203 1.817,0.444 2.477,0.73 v 0 c 0.693,0.309 1.239,0.635 1.632,0.963 v 0 c 0.394,0.331 0.704,0.617 0.921,0.87 v 0 c 0.784,0.849 1.43,1.847 1.939,2.989 v 0 c 0.499,1.147 0.751,2.566 0.751,4.26 v 0 2.727 c 0,1.697 -0.321,3.149 -0.965,4.356 v 0 c -0.647,1.207 -1.363,2.202 -2.148,2.99 v 0 c 0.503,0.752 0.94,1.638 1.32,2.658 v 0 c 0.378,1.021 0.567,2.17 0.567,3.456 v 0 1.792 c 0,1.662 -0.263,3.106 -0.781,4.332 v 0 c -0.518,1.222 -1.14,2.241 -1.864,3.057 v 0 c -0.221,0.253 -0.545,0.543 -0.97,0.873 v 0 c -0.425,0.329 -0.964,0.651 -1.628,0.966 v 0 c -0.692,0.281 -1.524,0.53 -2.502,0.751 v 0 c -0.977,0.222 -2.14,0.33 -3.492,0.33 v 0 z m 6.753,-25.962 v 3.791 6.734 4.515 4.193 h 10.484 c 1.195,0 2.229,-0.379 3.093,-1.131 v 0 c 0.862,-0.755 1.3,-1.87 1.3,-3.342 v 0 c 0,-1.506 -0.378,-2.59 -1.139,-3.248 v 0 c -0.751,-0.66 -1.634,-0.987 -2.643,-0.987 v 0 h -2.95 v -6.734 h 2.435 c 0.726,0 1.425,-0.067 2.096,-0.211 v 0 c 0.68,-0.141 1.271,-0.397 1.775,-0.774 v 0 c 0.534,-0.376 0.949,-0.872 1.251,-1.485 v 0 c 0.297,-0.608 0.446,-1.375 0.446,-2.284 v 0 c -0.061,-1.725 -0.446,-2.948 -1.154,-3.672 v 0 c -0.708,-0.721 -1.807,-1.082 -3.285,-1.082 v 0 h -11.709 z"
               style="fill:url(#linearGradient480);stroke:none"
               id="path482" /></g></g></g></g><g
       id="g484"><g
         id="g486"
         clip-path="url(#clipPath490)"><g
           id="g492"
           transform="translate(316.6533,695.5947)"><path
             d="m 0,0 c 10.051,6.352 23.061,4.166 30.548,-4.633 -0.453,1.003 -0.978,1.99 -1.585,2.951 -6.958,11.006 -21.529,14.291 -32.533,7.33 -11.012,-6.961 -14.29,-21.527 -7.332,-32.538 0.608,-0.956 1.272,-1.854 1.987,-2.694 C -13.656,-19.044 -10.051,-6.356 0,0"
             style="fill:#b3d334;fill-opacity:1;fill-rule:nonzero;stroke:none"
             id="path494" /></g><g
           id="g496"
           transform="translate(346.4365,674.582)"><path
             d="m 0,0 c 0.465,-11.88 -7.949,-22.047 -19.317,-24.115 1.095,-0.111 2.214,-0.152 3.352,-0.105 13.01,0.505 23.153,11.469 22.644,24.48 -0.508,13.018 -11.47,23.153 -24.485,22.646 -1.133,-0.043 -2.245,-0.17 -3.329,-0.368 C -9.638,21.361 -0.462,11.882 0,0"
             style="fill:#00b8b6;fill-opacity:1;fill-rule:nonzero;stroke:none"
             id="path498" /></g><g
           id="g500"
           transform="translate(313.335,659.2793)"><path
             d="m 0,0 c -10.514,5.549 -15.096,17.924 -11.189,28.797 -0.647,-0.893 -1.243,-1.838 -1.772,-2.846 -6.082,-11.513 -1.677,-25.784 9.84,-31.861 11.52,-6.085 25.783,-1.675 31.867,9.841 0.528,1 0.975,2.026 1.349,3.063 C 23.315,-2.363 10.515,-5.554 0,0"
             style="fill:#0089d0;fill-opacity:1;fill-rule:nonzero;stroke:none"
             id="path502" /></g><g
           id="g504"
           transform="translate(205.7153,190.9658)"><path
             d="m 0,0 c -1.697,0 -3.278,0.295 -4.742,0.881 -1.465,0.59 -2.723,1.38 -3.761,2.369 -1.074,1.022 -1.906,2.24 -2.494,3.648 -0.587,1.413 -0.88,2.954 -0.88,4.626 v 26.394 h 6.986 V 14.961 c 0,-1.578 0.141,-2.918 0.419,-4.016 C -4.199,9.843 -3.685,8.967 -2.937,8.318 -2.252,7.635 -1.307,7.148 -0.1,6.854 1.106,6.561 2.635,6.412 4.493,6.412 h 7.569 l 0,-6.412 z"
             style="fill:#ffffff;fill-opacity:1;fill-rule:nonzero;stroke:none"
             id="path506" /></g><g
           id="g508"
           transform="translate(254.5493,228.8838)"><path
             d="m 0,0 v -24.439 c 0,-1.983 -0.382,-3.853 -1.15,-5.598 -0.765,-1.754 -1.83,-3.278 -3.198,-4.582 -1.399,-1.332 -3.065,-2.369 -4.987,-3.11 -1.918,-0.746 -4.023,-1.118 -6.304,-1.118 -2.276,0 -4.38,0.372 -6.299,1.118 -1.921,0.741 -3.566,1.778 -4.936,3.11 -1.402,1.304 -2.486,2.828 -3.254,4.582 -0.76,1.745 -1.144,3.615 -1.144,5.598 V 0 h 7.087 v -22.724 c 0,-1.266 0.199,-2.462 0.611,-3.575 0.407,-1.117 0.966,-2.094 1.685,-2.927 0.748,-0.836 1.653,-1.495 2.711,-1.979 1.054,-0.478 2.237,-0.719 3.539,-0.719 1.308,0 2.478,0.241 3.52,0.719 1.047,0.484 1.939,1.143 2.687,1.979 0.753,0.833 1.32,1.81 1.713,2.927 0.386,1.113 0.584,2.309 0.584,3.575 l 0,22.724 z"
             style="fill:#ffffff;fill-opacity:1;fill-rule:nonzero;stroke:none"
             id="path510" /></g><g
           id="g512"
           transform="translate(291.812,197.3799)"><path
             d="m 0,0 v -6.414 h -17.884 c -1.694,0 -3.265,0.295 -4.72,0.884 -1.447,0.591 -2.693,1.377 -3.736,2.366 -1.042,1.024 -1.866,2.236 -2.468,3.651 -0.601,1.408 -0.902,2.936 -0.902,4.579 V 19.98 c 0,1.643 0.301,3.167 0.902,4.578 0.602,1.407 1.426,2.638 2.468,3.692 1.043,1.023 2.289,1.818 3.736,2.394 1.455,0.575 3.026,0.86 4.72,0.86 h 17.058 v -6.411 h -12.512 c -1.859,0 -3.383,-0.157 -4.569,-0.466 -1.191,-0.311 -2.142,-0.791 -2.86,-1.445 -0.722,-0.676 -1.221,-1.559 -1.515,-2.647 -0.291,-1.083 -0.44,-2.418 -0.44,-3.994 V 15.656 H -2.688 V 9.246 H -22.722 V 8.732 c 0,-1.578 0.149,-2.921 0.44,-4.04 0.294,-1.116 0.793,-2.017 1.515,-2.692 0.718,-0.717 1.669,-1.228 2.86,-1.537 C -16.721,0.154 -15.197,0 -13.338,0 Z"
             style="fill:#ffffff;fill-opacity:1;fill-rule:nonzero;stroke:none"
             id="path514" /></g><g
           id="g516"
           transform="translate(391.9434,228.8838)"><path
             d="m 0,0 v -37.913 l -7.035,0.044 c -0.164,0 -0.382,0.023 -0.659,0.068 -0.279,0.048 -0.516,0.194 -0.707,0.443 -0.034,0 -0.303,0.419 -0.807,1.253 -0.506,0.838 -1.165,1.936 -1.978,3.3 -0.848,1.364 -1.809,2.94 -2.884,4.739 -1.074,1.793 -2.184,3.657 -3.323,5.576 -1.172,1.951 -2.364,3.912 -3.568,5.877 -1.205,1.972 -2.327,3.82 -3.369,5.556 v -26.856 h -6.986 V 0 h 7.376 c 0.197,0 0.415,-0.016 0.664,-0.043 0.242,-0.033 0.474,-0.174 0.704,-0.42 0.031,-0.031 0.309,-0.49 0.833,-1.371 0.518,-0.885 1.218,-2.039 2.098,-3.463 0.818,-1.424 1.767,-3.045 2.857,-4.855 1.094,-1.81 2.224,-3.664 3.398,-5.551 1.107,-1.956 2.225,-3.853 3.347,-5.693 1.126,-1.842 2.14,-3.542 3.053,-5.088 l 0,26.484 z"
             style="fill:#ffffff;fill-opacity:1;fill-rule:nonzero;stroke:none"
             id="path518" /></g><g
           id="g520"
           transform="translate(429.2061,197.3799)"><path
             d="m 0,0 v -6.414 h -17.88 c -1.692,0 -3.266,0.295 -4.714,0.884 -1.451,0.591 -2.698,1.377 -3.74,2.366 -1.042,1.024 -1.866,2.236 -2.466,3.651 -0.607,1.408 -0.913,2.936 -0.913,4.579 V 19.98 c 0,1.643 0.306,3.167 0.913,4.578 0.6,1.407 1.424,2.638 2.466,3.692 1.042,1.023 2.289,1.818 3.74,2.394 1.448,0.575 3.022,0.86 4.714,0.86 h 17.052 v -6.411 h -12.509 c -1.856,0 -3.38,-0.157 -4.57,-0.466 -1.192,-0.311 -2.14,-0.791 -2.856,-1.445 -0.717,-0.676 -1.222,-1.559 -1.513,-2.647 -0.293,-1.083 -0.441,-2.418 -0.441,-3.994 V 15.656 H -2.684 V 9.246 H -22.717 V 8.732 c 0,-1.578 0.148,-2.921 0.441,-4.04 0.291,-1.116 0.796,-2.017 1.513,-2.692 0.716,-0.717 1.664,-1.228 2.856,-1.537 C -16.717,0.154 -15.193,0 -13.337,0 Z"
             style="fill:#ffffff;fill-opacity:1;fill-rule:nonzero;stroke:none"
             id="path522" /></g><g
           id="g524"
           transform="translate(179.2314,198.2871)"><path
             d="m 0,0 c -0.708,-0.72 -1.807,-1.082 -3.285,-1.082 h -11.709 v 5.718 3.791 6.732 4.516 4.193 H -4.51 c 1.195,0 2.229,-0.379 3.093,-1.131 0.862,-0.756 1.3,-1.87 1.3,-3.341 0,-1.507 -0.378,-2.591 -1.138,-3.249 -0.752,-0.66 -1.635,-0.988 -2.643,-0.988 H -6.849 V 8.427 h 2.436 c 0.725,0 1.424,-0.067 2.096,-0.211 C -1.638,8.074 -1.046,7.817 -0.543,7.44 -0.009,7.065 0.406,6.569 0.708,5.956 1.005,5.348 1.154,4.581 1.154,3.672 1.094,1.946 0.708,0.724 0,0 m 7.084,9.392 c -0.647,1.207 -1.363,2.202 -2.147,2.99 0.503,0.752 0.939,1.638 1.319,2.658 0.378,1.021 0.567,2.17 0.567,3.456 v 1.792 c 0,1.661 -0.263,3.106 -0.781,4.332 -0.518,1.223 -1.14,2.24 -1.864,3.057 -0.22,0.254 -0.545,0.543 -0.969,0.873 -0.426,0.329 -0.965,0.651 -1.629,0.966 -0.691,0.281 -1.524,0.53 -2.502,0.752 -0.977,0.221 -2.14,0.329 -3.491,0.329 H -21.747 V -7.808 H -3.19 c 1.355,0 2.53,0.102 3.519,0.305 0.994,0.202 1.818,0.443 2.478,0.73 0.692,0.309 1.239,0.635 1.631,0.962 0.394,0.332 0.704,0.619 0.921,0.872 0.785,0.848 1.43,1.846 1.939,2.988 0.499,1.146 0.752,2.566 0.752,4.26 v 2.727 c 0,1.697 -0.322,3.149 -0.966,4.356"
             style="fill:#ffffff;fill-opacity:1;fill-rule:nonzero;stroke:none"
             id="path526" /></g><g
           id="g528"
           transform="translate(317.459,229.2168)"><path
             d="m 0,0 c 10.051,6.353 23.061,4.165 30.548,-4.634 -0.453,1.004 -0.978,1.99 -1.585,2.951 -6.958,11.007 -21.529,14.291 -32.533,7.33 -11.012,-6.96 -14.29,-21.526 -7.332,-32.537 0.608,-0.957 1.272,-1.853 1.987,-2.694 C -13.656,-19.044 -10.051,-6.356 0,0"
             style="fill:#b3d334;fill-opacity:1;fill-rule:nonzero;stroke:none"
             id="path530" /></g><g
           id="g532"
           transform="translate(347.2422,208.2041)"><path
             d="m 0,0 c 0.465,-11.881 -7.949,-22.047 -19.317,-24.115 1.095,-0.112 2.214,-0.153 3.352,-0.105 13.01,0.505 23.153,11.468 22.644,24.48 -0.508,13.018 -11.47,23.153 -24.485,22.646 -1.133,-0.043 -2.245,-0.17 -3.329,-0.369 C -9.638,21.361 -0.462,11.883 0,0"
             style="fill:#00b8b6;fill-opacity:1;fill-rule:nonzero;stroke:none"
             id="path534" /></g><g
           id="g536"
           transform="translate(314.1406,192.9014)"><path
             d="m 0,0 c -10.514,5.549 -15.096,17.924 -11.189,28.797 -0.647,-0.893 -1.243,-1.838 -1.772,-2.846 -6.082,-11.513 -1.677,-25.784 9.84,-31.861 11.52,-6.084 25.783,-1.676 31.867,9.841 0.528,1 0.975,2.026 1.349,3.063 C 23.315,-2.363 10.515,-5.555 0,0"
             style="fill:#0089d0;fill-opacity:1;fill-rule:nonzero;stroke:none"
             id="path538" /></g><g
           id="g540"
           transform="translate(200.0205,417.9199)"><path
             d="m 0,0 c 18.141,11.466 41.622,7.519 55.137,-8.362 -0.82,1.811 -1.766,3.591 -2.863,5.326 -12.558,19.866 -38.857,25.795 -58.719,13.23 -19.874,-12.563 -25.792,-38.853 -13.233,-58.727 1.097,-1.727 2.296,-3.346 3.587,-4.863 C -24.648,-34.373 -18.141,-11.472 0,0"
             style="fill:#b3d334;fill-opacity:1;fill-rule:nonzero;stroke:none"
             id="path542" /></g><g
           id="g544"
           transform="translate(253.7764,379.9941)"><path
             d="m 0,0 c 0.839,-21.443 -14.347,-39.793 -34.866,-43.526 1.978,-0.201 3.998,-0.274 6.05,-0.189 23.483,0.91 41.791,20.699 40.871,44.185 -0.915,23.497 -20.702,41.789 -44.192,40.875 -2.046,-0.078 -4.052,-0.309 -6.009,-0.666 C -17.396,38.555 -0.835,21.447 0,0"
             style="fill:#00b8b6;fill-opacity:1;fill-rule:nonzero;stroke:none"
             id="path546" /></g><g
           id="g548"
           transform="translate(194.0313,352.374)"><path
             d="m 0,0 c -18.978,10.016 -27.246,32.352 -20.196,51.976 -1.167,-1.612 -2.242,-3.317 -3.198,-5.136 -10.979,-20.78 -3.027,-46.539 17.76,-57.508 20.792,-10.981 46.537,-3.023 57.519,17.762 0.953,1.805 1.759,3.657 2.432,5.529 C 42.082,-4.266 18.978,-10.025 0,0"
             style="fill:#0089d0;fill-opacity:1;fill-rule:nonzero;stroke:none"
             id="path550" /></g><g
           id="g552"
           transform="translate(344.3721,417.9199)"><path
             d="m 0,0 c 18.141,11.466 41.622,7.519 55.137,-8.362 -0.82,1.811 -1.766,3.591 -2.863,5.326 -12.558,19.866 -38.857,25.795 -58.719,13.23 -19.874,-12.563 -25.792,-38.853 -13.233,-58.727 1.097,-1.727 2.296,-3.346 3.587,-4.863 C -24.648,-34.373 -18.141,-11.472 0,0"
             style="fill:#b3d334;fill-opacity:1;fill-rule:nonzero;stroke:none"
             id="path554" /></g><g
           id="g556"
           transform="translate(398.1279,379.9941)"><path
             d="m 0,0 c 0.839,-21.443 -14.347,-39.793 -34.866,-43.526 1.978,-0.201 3.998,-0.274 6.05,-0.189 23.483,0.91 41.791,20.699 40.871,44.185 -0.915,23.497 -20.702,41.789 -44.192,40.875 -2.046,-0.078 -4.052,-0.309 -6.009,-0.666 C -17.396,38.555 -0.835,21.447 0,0"
             style="fill:#00b8b6;fill-opacity:1;fill-rule:nonzero;stroke:none"
             id="path558" /></g><g
           id="g560"
           transform="translate(338.3828,352.374)"><path
             d="m 0,0 c -18.978,10.016 -27.246,32.352 -20.196,51.976 -1.167,-1.612 -2.242,-3.317 -3.198,-5.136 -10.979,-20.78 -3.027,-46.539 17.76,-57.508 20.792,-10.981 46.537,-3.023 57.519,17.762 0.953,1.805 1.759,3.657 2.432,5.529 C 42.082,-4.266 18.978,-10.025 0,0"
             style="fill:#0089d0;fill-opacity:1;fill-rule:nonzero;stroke:none"
             id="path562" /></g></g></g><g
       id="g564"><g
         id="g566"><g
           id="g572"><g
             id="g574"><path
               d="m 343.136,407.776 v -49.479 h 23.907 c 1.743,0 3.257,0.127 4.532,0.392 v 0 c 1.281,0.264 2.346,0.575 3.196,0.942 v 0 c 0.889,0.404 1.589,0.815 2.101,1.239 v 0 c 0.504,0.428 0.897,0.799 1.182,1.128 v 0 c 1.017,1.085 1.845,2.374 2.497,3.849 v 0 c 0.648,1.475 0.973,3.303 0.973,5.486 v 0 3.518 c 0,2.181 -0.42,4.056 -1.248,5.609 v 0 c -0.833,1.558 -1.756,2.84 -2.768,3.852 v 0 c 0.65,0.968 1.219,2.111 1.702,3.425 v 0 c 0.487,1.314 0.732,2.796 0.732,4.452 v 0 2.309 c 0,2.14 -0.335,4.003 -1.003,5.58 v 0 c -0.668,1.577 -1.474,2.888 -2.403,3.942 v 0 c -0.287,0.319 -0.702,0.697 -1.244,1.123 v 0 c -0.553,0.421 -1.248,0.837 -2.103,1.242 v 0 c -0.891,0.358 -1.97,0.683 -3.222,0.968 v 0 c -1.259,0.286 -2.761,0.423 -4.507,0.423 v 0 z m 8.699,-33.441 v 4.883 8.669 5.823 5.394 h 13.508 c 1.537,0 2.867,-0.486 3.98,-1.453 v 0 c 1.115,-0.972 1.674,-2.407 1.674,-4.304 v 0 c 0,-1.942 -0.484,-3.338 -1.459,-4.188 v 0 c -0.972,-0.85 -2.109,-1.272 -3.405,-1.272 v 0 h -3.806 v -8.669 h 3.133 c 0.935,0 1.84,-0.091 2.71,-0.276 v 0 c 0.872,-0.18 1.633,-0.517 2.28,-0.999 v 0 c 0.69,-0.483 1.227,-1.125 1.612,-1.908 v 0 c 0.389,-0.787 0.578,-1.771 0.578,-2.945 v 0 c -0.08,-2.226 -0.578,-3.793 -1.489,-4.731 v 0 c -0.914,-0.924 -2.322,-1.39 -4.226,-1.39 v 0 h -15.09 z"
               style="fill:url(#linearGradient580);stroke:none"
               id="path582" /></g></g></g></g><g
       id="g584"><g
         id="g586"
         clip-path="url(#clipPath590)"><g
           id="g592"
           transform="translate(282.21,133.8916)"><path
             d="m 0,0 c 12.816,8.099 29.406,5.313 38.95,-5.907 -0.577,1.279 -1.247,2.536 -2.021,3.763 -8.87,14.035 -27.451,18.224 -41.481,9.346 -14.044,-8.874 -18.221,-27.446 -9.35,-41.485 0.776,-1.221 1.624,-2.366 2.536,-3.439 C -17.41,-24.281 -12.816,-8.103 0,0"
             style="fill:#b3d334;fill-opacity:1;fill-rule:nonzero;stroke:none"
             id="path594" /></g><g
           id="g596"
           transform="translate(320.1865,107.0996)"><path
             d="m 0,0 c 0.593,-15.148 -10.136,-28.112 -24.631,-30.752 1.398,-0.139 2.824,-0.187 4.273,-0.128 C -3.769,-30.238 9.164,-16.261 8.515,0.334 7.867,16.933 -6.11,29.853 -22.705,29.208 -24.15,29.153 -25.566,28.991 -26.95,28.738 -12.287,27.236 -0.591,15.152 0,0"
             style="fill:#00b8b6;fill-opacity:1;fill-rule:nonzero;stroke:none"
             id="path598" /></g><g
           id="g600"
           transform="translate(277.979,87.5898)"><path
             d="m 0,0 c -13.406,7.074 -19.248,22.853 -14.266,36.715 -0.826,-1.137 -1.587,-2.341 -2.26,-3.626 C -24.282,18.407 -18.665,0.21 -3.981,-7.537 10.71,-15.295 28.896,-9.676 36.655,5.011 37.328,6.285 37.896,7.594 38.373,8.916 29.729,-3.016 13.406,-7.083 0,0"
             style="fill:#0089d0;fill-opacity:1;fill-rule:nonzero;stroke:none"
             id="path602" /></g><g
           id="g604"
           transform="translate(300.8105,99.4102)"><path
             d="m 0,0 c -0.613,-0.619 -1.559,-0.933 -2.835,-0.933 h -10.118 v 4.937 3.273 5.816 3.902 3.617 h 9.062 c 1.03,0 1.917,-0.325 2.663,-0.973 0.751,-0.654 1.124,-1.615 1.124,-2.889 0,-1.299 -0.326,-2.234 -0.976,-2.806 -0.653,-0.571 -1.415,-0.851 -2.284,-0.851 H -5.917 V 7.277 h 2.102 c 0.628,0 1.233,-0.061 1.818,-0.182 C -1.416,6.972 -0.904,6.748 -0.472,6.427 -0.004,6.101 0.354,5.671 0.609,5.145 0.869,4.615 0.997,3.957 0.997,3.169 0.945,1.676 0.609,0.622 0,0 m 6.12,8.11 c -0.561,1.046 -1.178,1.906 -1.855,2.58 0.434,0.655 0.815,1.417 1.14,2.301 0.326,0.883 0.491,1.874 0.491,2.987 v 1.546 c 0,1.435 -0.226,2.685 -0.677,3.743 -0.444,1.054 -0.985,1.936 -1.606,2.641 -0.193,0.215 -0.472,0.468 -0.836,0.751 -0.373,0.283 -0.836,0.567 -1.412,0.836 -0.597,0.241 -1.32,0.458 -2.158,0.65 -0.845,0.191 -1.851,0.281 -3.022,0.281 h -14.97 V -6.748 h 16.03 c 1.169,0 2.184,0.085 3.039,0.262 0.859,0.177 1.571,0.384 2.142,0.632 0.597,0.269 1.069,0.545 1.409,0.829 0.337,0.289 0.603,0.536 0.794,0.755 0.682,0.73 1.237,1.595 1.677,2.583 0.429,0.99 0.651,2.216 0.651,3.679 v 2.357 c 0,1.462 -0.284,2.722 -0.837,3.761"
             style="fill:#ffffff;fill-opacity:1;fill-rule:nonzero;stroke:none"
             id="path606" /></g></g></g></g></svg>
