<svg version="1.2" baseProfile="tiny-ps" xmlns="http://www.w3.org/2000/svg" viewBox="0 0 544 109" width="544" height="109">
	<title>Layer 1</title>
	<style>
		tspan { white-space:pre }
		.s0 { fill: #ffffff } 
		.s1 { fill: #b0d243 } 
		.s2 { fill: #2fc2b9 } 
		.s3 { fill: #0090d3 } 
	</style>
	<g id="Layer 1">
		<g id="&lt;Group&gt;">
			<path id="&lt;Compound Path&gt;" class="s0" d="m96.43 95.07c-3.39 0-6.56-0.59-9.48-1.76c-2.93-1.18-5.45-2.76-7.52-4.74c-2.15-2.04-3.81-4.48-4.99-7.3c-1.18-2.82-1.76-5.91-1.76-9.25v-52.79h13.97v45.91c0 3.16 0.28 5.84 0.84 8.03c0.55 2.21 1.58 3.96 3.07 5.25c1.37 1.37 3.26 2.34 5.67 2.93c2.41 0.59 5.47 0.88 9.19 0.88h15.14v12.82h-24.12z" />
			<path id="&lt;Compound Path&gt;" class="s0" d="m194.1 19.23v48.88c0 3.96-0.76 7.71-2.3 11.2c-1.53 3.51-3.66 6.56-6.4 9.16c-2.8 2.66-6.13 4.74-9.97 6.22c-3.84 1.49-8.04 2.24-12.61 2.24c-4.55 0-8.76-0.74-12.6-2.24c-3.84-1.48-7.13-3.55-9.87-6.22c-2.8-2.61-4.97-5.66-6.51-9.16c-1.52-3.49-2.29-7.23-2.29-11.2v-48.88h14.17v45.45c0 2.53 0.4 4.92 1.22 7.15c0.81 2.23 1.93 4.19 3.37 5.85c1.5 1.67 3.3 2.99 5.42 3.96c2.11 0.96 4.47 1.44 7.08 1.44c2.62 0 4.96-0.48 7.04-1.44c2.09-0.97 3.88-2.29 5.37-3.96c1.5-1.67 2.64-3.62 3.43-5.85c0.77-2.23 1.17-4.62 1.17-7.15v-45.45h14.27z" />
			<path id="&lt;Compound Path&gt;" class="s0" d="m268.62 82.24v12.83h-35.77c-3.39 0-6.53-0.59-9.44-1.77c-2.9-1.18-5.39-2.75-7.47-4.73c-2.08-2.05-3.73-4.47-4.93-7.3c-1.2-2.81-1.81-5.87-1.81-9.16v-29.83c0-3.29 0.6-6.33 1.81-9.15c1.2-2.81 2.85-5.28 4.93-7.38c2.09-2.05 4.58-3.64 7.47-4.79c2.91-1.15 6.05-1.72 9.44-1.72h34.12v12.82h-25.02c-3.72 0-6.76 0.31-9.14 0.93c-2.38 0.62-4.28 1.58-5.72 2.89c-1.44 1.35-2.44 3.12-3.03 5.29c-0.58 2.17-0.88 4.84-0.88 7.99v1.77h40.07v12.82h-40.07v1.03c0 3.16 0.3 5.84 0.88 8.08c0.59 2.23 1.58 4.04 3.03 5.38c1.44 1.43 3.34 2.45 5.72 3.07c2.37 0.62 5.42 0.93 9.14 0.93h26.68z" />
			<path id="&lt;Compound Path&gt;" class="s0" d="m468.89 19.23v75.83l-14.07-0.09c-0.33 0-0.76-0.05-1.32-0.14c-0.56-0.1-1.03-0.39-1.41-0.88c-0.07 0-0.61-0.84-1.61-2.51c-1.01-1.68-2.33-3.87-3.96-6.6c-1.7-2.73-3.62-5.88-5.77-9.48c-2.15-3.59-4.37-7.31-6.64-11.15c-2.35-3.9-4.73-7.82-7.14-11.75c-2.41-3.95-4.65-7.64-6.74-11.11v53.71h-13.97v-75.83h14.75c0.39 0 0.83 0.03 1.33 0.09c0.48 0.07 0.95 0.35 1.41 0.84c0.06 0.06 0.62 0.98 1.67 2.74c1.04 1.77 2.44 4.08 4.2 6.93c1.63 2.85 3.53 6.09 5.71 9.71c2.19 3.62 4.45 7.33 6.8 11.1c2.21 3.91 4.45 7.7 6.69 11.39c2.25 3.68 4.28 7.08 6.11 10.18v-52.97h13.97z" />
			<path id="&lt;Compound Path&gt;" class="s0" d="m543.41 82.24v12.83h-35.76c-3.38 0-6.53-0.59-9.43-1.77c-2.9-1.18-5.4-2.75-7.48-4.73c-2.08-2.05-3.73-4.47-4.93-7.3c-1.22-2.81-1.83-5.87-1.83-9.16v-29.83c0-3.29 0.61-6.33 1.83-9.15c1.2-2.81 2.85-5.28 4.93-7.38c2.08-2.05 4.58-3.64 7.48-4.79c2.9-1.15 6.04-1.72 9.43-1.72h34.1v12.82h-25.02c-3.71 0-6.76 0.31-9.14 0.93c-2.38 0.62-4.28 1.58-5.71 2.89c-1.44 1.35-2.45 3.12-3.03 5.29c-0.59 2.17-0.88 4.84-0.88 7.99v1.77h40.07v12.82h-40.07v1.03c0 3.16 0.29 5.84 0.88 8.08c0.58 2.23 1.59 4.04 3.03 5.38c1.43 1.43 3.33 2.45 5.71 3.07c2.38 0.62 5.43 0.93 9.14 0.93h26.67z" />
			<path id="&lt;Compound Path&gt;" fill-rule="evenodd" class="s0" d="m59.56 70.35v5.45c0 3.39-0.51 6.23-1.5 8.52c-1.02 2.28-2.31 4.28-3.88 5.98c-0.43 0.51-1.05 1.08-1.84 1.74c-0.78 0.65-1.88 1.31-3.26 1.93c-1.32 0.57-2.97 1.05-4.96 1.46c-1.98 0.41-4.33 0.61-7.04 0.61h-37.11v-76.81h34.67c2.7 0 5.03 0.21 6.98 0.66c1.95 0.44 3.62 0.94 5 1.5c1.33 0.63 2.41 1.27 3.26 1.93c0.85 0.66 1.5 1.24 1.94 1.75c1.45 1.63 2.69 3.67 3.73 6.11c1.04 2.45 1.56 5.34 1.56 8.66v3.58c0 2.57-0.38 4.87-1.13 6.91c-0.76 2.04-1.63 3.81-2.64 5.32c1.57 1.58 3 3.57 4.3 5.98c1.29 2.41 1.93 5.32 1.93 8.71zm-13.79 2.73c0-1.82-0.3-3.35-0.89-4.57c-0.6-1.23-1.43-2.22-2.5-2.97c-1.01-0.75-2.19-1.27-3.55-1.55c-1.34-0.29-2.74-0.42-4.19-0.42h-4.87v-13.46h5.9c2.02 0 3.78-0.66 5.29-1.98c1.52-1.31 2.28-3.48 2.28-6.5c0-2.94-0.88-5.17-2.6-6.68c-1.73-1.5-3.8-2.26-6.19-2.26h-20.97v49.9h23.42c2.96 0 5.15-0.72 6.57-2.16c1.42-1.45 2.19-3.89 2.31-7.34z" />
			<g id="&lt;Group&gt;">
				<path id="&lt;Path&gt;" class="s1" d="m302.09 77.73c-1.43-1.68-2.76-3.47-3.97-5.39c-13.92-22.02-7.36-51.15 14.66-65.07c22.01-13.92 51.15-7.35 65.07 14.66c1.21 1.92 2.26 3.89 3.17 5.9c-14.97-17.6-40.99-21.97-61.1-9.27c-20.1 12.71-27.31 38.09-17.83 59.17z" />
				<path id="&lt;Path&gt;" class="s2" d="m337.21 15.52c2.17-0.4 4.39-0.65 6.66-0.74c26.03-1.01 47.95 19.26 48.97 45.29c1.02 26.02-19.27 47.95-45.29 48.96c-2.28 0.1-4.51 0.01-6.7-0.21c22.74-4.14 39.56-24.47 38.63-48.23c-0.92-23.77-19.28-42.72-42.27-45.07z" />
				<path id="&lt;Path&gt;" class="s3" d="m373.47 77.21c-0.75 2.07-1.64 4.13-2.7 6.13c-12.17 23.03-40.69 31.85-63.73 19.68c-23.03-12.15-31.84-40.7-19.68-63.72c1.06-2.02 2.25-3.91 3.54-5.69c-7.81 21.75 1.35 46.5 22.38 57.59c21.03 11.11 46.63 4.73 60.19-13.99z" />
			</g>
		</g>
	</g>
</svg>